<svg xmlns="http://www.w3.org/2000/svg" width="920" height="520" viewBox="0 0 920 520">
<rect x="0" y="0" width="920" height="520" fill="#ffffff"/>
<text x="460.0" y="38" font-size="20" text-anchor="middle" fill="#111827" font-family="ui-sans-serif, system-ui, -apple-system">D4B conditional timing: P(100ms) around transitions (u_only_worse, topK=5)</text>
<rect x="70" y="70" width="820" height="390" fill="none" stroke="#111827" stroke-width="1.2"/>
<line x1="70" y1="460.00" x2="890" y2="460.00" stroke="#e5e7eb" stroke-width="1"/>
<text x="62" y="464.00" font-size="12" text-anchor="end" fill="#111827" font-family="ui-sans-serif, system-ui, -apple-system">0.0</text>
<line x1="70" y1="382.00" x2="890" y2="382.00" stroke="#e5e7eb" stroke-width="1"/>
<text x="62" y="386.00" font-size="12" text-anchor="end" fill="#111827" font-family="ui-sans-serif, system-ui, -apple-system">0.2</text>
<line x1="70" y1="304.00" x2="890" y2="304.00" stroke="#e5e7eb" stroke-width="1"/>
<text x="62" y="308.00" font-size="12" text-anchor="end" fill="#111827" font-family="ui-sans-serif, system-ui, -apple-system">0.4</text>
<line x1="70" y1="226.00" x2="890" y2="226.00" stroke="#e5e7eb" stroke-width="1"/>
<text x="62" y="230.00" font-size="12" text-anchor="end" fill="#111827" font-family="ui-sans-serif, system-ui, -apple-system">0.6</text>
<line x1="70" y1="148.00" x2="890" y2="148.00" stroke="#e5e7eb" stroke-width="1"/>
<text x="62" y="152.00" font-size="12" text-anchor="end" fill="#111827" font-family="ui-sans-serif, system-ui, -apple-system">0.8</text>
<line x1="70" y1="70.00" x2="890" y2="70.00" stroke="#e5e7eb" stroke-width="1"/>
<text x="62" y="74.00" font-size="12" text-anchor="end" fill="#111827" font-family="ui-sans-serif, system-ui, -apple-system">1.0</text>
<line x1="70.00" y1="70" x2="70.00" y2="460" stroke="#e5e7eb" stroke-width="1"/>
<text x="70.00" y="486" font-size="12" text-anchor="middle" fill="#111827" font-family="ui-sans-serif, system-ui, -apple-system">-2.0</text>
<line x1="206.67" y1="70" x2="206.67" y2="460" stroke="#e5e7eb" stroke-width="1"/>
<text x="206.67" y="486" font-size="12" text-anchor="middle" fill="#111827" font-family="ui-sans-serif, system-ui, -apple-system">-1.3</text>
<line x1="343.33" y1="70" x2="343.33" y2="460" stroke="#e5e7eb" stroke-width="1"/>
<text x="343.33" y="486" font-size="12" text-anchor="middle" fill="#111827" font-family="ui-sans-serif, system-ui, -apple-system">-0.7</text>
<line x1="480.00" y1="70" x2="480.00" y2="460" stroke="#e5e7eb" stroke-width="1"/>
<text x="480.00" y="486" font-size="12" text-anchor="middle" fill="#111827" font-family="ui-sans-serif, system-ui, -apple-system">0.0</text>
<line x1="616.67" y1="70" x2="616.67" y2="460" stroke="#e5e7eb" stroke-width="1"/>
<text x="616.67" y="486" font-size="12" text-anchor="middle" fill="#111827" font-family="ui-sans-serif, system-ui, -apple-system">0.7</text>
<line x1="753.33" y1="70" x2="753.33" y2="460" stroke="#e5e7eb" stroke-width="1"/>
<text x="753.33" y="486" font-size="12" text-anchor="middle" fill="#111827" font-family="ui-sans-serif, system-ui, -apple-system">1.3</text>
<line x1="890.00" y1="70" x2="890.00" y2="460" stroke="#e5e7eb" stroke-width="1"/>
<text x="890.00" y="486" font-size="12" text-anchor="middle" fill="#111827" font-family="ui-sans-serif, system-ui, -apple-system">2.0</text>
<line x1="480.00" y1="70" x2="480.00" y2="460" stroke="#6b7280" stroke-width="2" stroke-dasharray="6 4"/>
<path d="M 70.00 265.00 L 90.50 265.00 L 111.00 265.00 L 131.50 265.00 L 152.00 265.00 L 172.50 265.00 L 193.00 265.00 L 213.50 265.00 L 234.00 265.00 L 254.50 265.00 L 275.00 265.00 L 295.50 265.00 L 316.00 265.00 L 336.50 265.00 L 357.00 265.00 L 377.50 265.00 L 398.00 265.00 L 418.50 265.00 L 439.00 265.00 L 459.50 265.00 L 480.00 265.00 L 500.50 265.00 L 521.00 265.00 L 541.50 265.00 L 562.00 265.00 L 582.50 265.00 L 603.00 265.00 L 623.50 135.00 L 644.00 70.00 L 664.50 70.00 L 685.00 70.00 L 705.50 70.00 L 726.00 70.00 L 746.50 70.00 L 767.00 70.00 L 787.50 70.00 L 808.00 70.00 L 828.50 70.00 L 849.00 70.00 L 869.50 70.00 L 890.00 70.00" fill="none" stroke="#2563eb" stroke-width="2.5"/>
<path d="M 70.00 265.00 L 90.50 265.00 L 111.00 265.00 L 131.50 265.00 L 152.00 265.00 L 172.50 265.00 L 193.00 265.00 L 213.50 265.00 L 234.00 265.00 L 254.50 265.00 L 275.00 265.00 L 295.50 265.00 L 316.00 265.00 L 336.50 265.00 L 357.00 265.00 L 377.50 265.00 L 398.00 265.00 L 418.50 265.00 L 439.00 265.00 L 459.50 265.00 L 480.00 265.00 L 500.50 265.00 L 521.00 265.00 L 541.50 265.00 L 562.00 265.00 L 582.50 265.00 L 603.00 265.00 L 623.50 135.00 L 644.00 70.00 L 664.50 70.00 L 685.00 70.00 L 705.50 70.00 L 726.00 70.00 L 746.50 70.00 L 767.00 70.00 L 787.50 70.00 L 808.00 70.00 L 828.50 70.00 L 849.00 70.00 L 869.50 70.00 L 890.00 70.00" fill="none" stroke="#ef4444" stroke-width="2.5"/>
<rect x="650" y="80" width="230" height="54" fill="#ffffff" stroke="#e5e7eb" stroke-width="1"/>
<line x1="664" y1="100" x2="684" y2="100" stroke="#2563eb" stroke-width="3"/>
<text x="692" y="104" font-size="12" fill="#111827" font-family="ui-sans-serif, system-ui, -apple-system">Policy (U+CCS)</text>
<line x1="664" y1="120" x2="684" y2="120" stroke="#ef4444" stroke-width="3"/>
<text x="692" y="124" font-size="12" fill="#111827" font-family="ui-sans-serif, system-ui, -apple-system">U-only (CCS-off)</text>
<text x="480.0" y="500" font-size="14" text-anchor="middle" fill="#111827" font-family="ui-sans-serif, system-ui, -apple-system">relative time to truth transition [s]</text>
<text x="18" y="265.0" font-size="14" text-anchor="middle" fill="#111827" font-family="ui-sans-serif, system-ui, -apple-system" transform="rotate(-90 18 265.0)">P(interval=100ms)</text>
</svg>