<svg xmlns="http://www.w3.org/2000/svg" width="980" height="620" viewBox="0 0 980 620">
<rect x="0" y="0" width="980" height="620" fill="#ffffff"/>
<text x="490.0" y="38" font-size="20" text-anchor="middle" fill="#111827" font-family="ui-sans-serif, system-ui, -apple-system">α-normalized power vs pout_1s (S4): CCS improves QoS at same α</text>
<rect x="90" y="70" width="860" height="470" fill="none" stroke="#111827" stroke-width="1.2"/>
<line x1="90.00" y1="70" x2="90.00" y2="540" stroke="#e5e7eb" stroke-width="1"/>
<text x="90.00" y="568" font-size="12" text-anchor="middle" fill="#111827" font-family="ui-sans-serif, system-ui, -apple-system">-0.05</text>
<line x1="262.00" y1="70" x2="262.00" y2="540" stroke="#e5e7eb" stroke-width="1"/>
<text x="262.00" y="568" font-size="12" text-anchor="middle" fill="#111827" font-family="ui-sans-serif, system-ui, -apple-system">0.18</text>
<line x1="434.00" y1="70" x2="434.00" y2="540" stroke="#e5e7eb" stroke-width="1"/>
<text x="434.00" y="568" font-size="12" text-anchor="middle" fill="#111827" font-family="ui-sans-serif, system-ui, -apple-system">0.41</text>
<line x1="606.00" y1="70" x2="606.00" y2="540" stroke="#e5e7eb" stroke-width="1"/>
<text x="606.00" y="568" font-size="12" text-anchor="middle" fill="#111827" font-family="ui-sans-serif, system-ui, -apple-system">0.65</text>
<line x1="778.00" y1="70" x2="778.00" y2="540" stroke="#e5e7eb" stroke-width="1"/>
<text x="778.00" y="568" font-size="12" text-anchor="middle" fill="#111827" font-family="ui-sans-serif, system-ui, -apple-system">0.88</text>
<line x1="950.00" y1="70" x2="950.00" y2="540" stroke="#e5e7eb" stroke-width="1"/>
<text x="950.00" y="568" font-size="12" text-anchor="middle" fill="#111827" font-family="ui-sans-serif, system-ui, -apple-system">1.11</text>
<line x1="90" y1="540.00" x2="950" y2="540.00" stroke="#e5e7eb" stroke-width="1"/>
<text x="80" y="544.00" font-size="12" text-anchor="end" fill="#111827" font-family="ui-sans-serif, system-ui, -apple-system">0.007</text>
<line x1="90" y1="446.00" x2="950" y2="446.00" stroke="#e5e7eb" stroke-width="1"/>
<text x="80" y="450.00" font-size="12" text-anchor="end" fill="#111827" font-family="ui-sans-serif, system-ui, -apple-system">0.081</text>
<line x1="90" y1="352.00" x2="950" y2="352.00" stroke="#e5e7eb" stroke-width="1"/>
<text x="80" y="356.00" font-size="12" text-anchor="end" fill="#111827" font-family="ui-sans-serif, system-ui, -apple-system">0.154</text>
<line x1="90" y1="258.00" x2="950" y2="258.00" stroke="#e5e7eb" stroke-width="1"/>
<text x="80" y="262.00" font-size="12" text-anchor="end" fill="#111827" font-family="ui-sans-serif, system-ui, -apple-system">0.228</text>
<line x1="90" y1="164.00" x2="950" y2="164.00" stroke="#e5e7eb" stroke-width="1"/>
<text x="80" y="168.00" font-size="12" text-anchor="end" fill="#111827" font-family="ui-sans-serif, system-ui, -apple-system">0.302</text>
<line x1="90" y1="70.00" x2="950" y2="70.00" stroke="#e5e7eb" stroke-width="1"/>
<text x="80" y="74.00" font-size="12" text-anchor="end" fill="#111827" font-family="ui-sans-serif, system-ui, -apple-system">0.376</text>
<text x="520.0" y="594" font-size="14" text-anchor="middle" fill="#111827" font-family="ui-sans-serif, system-ui, -apple-system">α=(P−P500)/(P100−P500)  (normalized power allocation)</text>
<text x="22" y="305.0" font-size="14" text-anchor="middle" fill="#111827" font-family="ui-sans-serif, system-ui, -apple-system" transform="rotate(-90 22 305.0)">pout_1s (lower=better)</text>
<line x1="90" y1="421.41" x2="950" y2="421.41" stroke="#9ca3af" stroke-width="2" stroke-dasharray="6 4"/>
<text x="940" y="413.41" font-size="12" text-anchor="end" fill="#6b7280" font-family="ui-sans-serif, system-ui, -apple-system">δ=0.1</text>
<line x1="868.97" y1="445.22" x2="868.97" y2="445.22" stroke="#3b82f6" stroke-width="2" opacity="0.9"/>
<line x1="868.97" y1="463.15" x2="868.97" y2="427.29" stroke="#3b82f6" stroke-width="2" opacity="0.9"/>
<rect x="862.97" y="439.22" width="12" height="12" fill="#3b82f6" opacity="0.95"/>
<text x="878.97" y="435.22" font-size="12" fill="#111827" font-family="ui-sans-serif, system-ui, -apple-system">scan90 fixed100</text>
<line x1="127.09" y1="383.10" x2="127.09" y2="383.10" stroke="#3b82f6" stroke-width="2" opacity="0.9"/>
<line x1="127.09" y1="418.96" x2="127.09" y2="347.23" stroke="#3b82f6" stroke-width="2" opacity="0.9"/>
<rect x="121.09" y="377.10" width="12" height="12" fill="#3b82f6" opacity="0.95"/>
<text x="137.09" y="373.10" font-size="12" fill="#111827" font-family="ui-sans-serif, system-ui, -apple-system">scan90 fixed500</text>
<line x1="573.82" y1="486.63" x2="600.08" y2="486.63" stroke="#10b981" stroke-width="2" opacity="0.9"/>
<line x1="586.95" y1="486.63" x2="586.95" y2="486.63" stroke="#10b981" stroke-width="2" opacity="0.9"/>
<circle cx="586.95" cy="486.63" r="6" fill="#10b981" opacity="0.95"/>
<text x="596.95" y="476.63" font-size="12" fill="#111827" font-family="ui-sans-serif, system-ui, -apple-system">scan90 policy (U+CCS)</text>
<line x1="574.23" y1="465.93" x2="601.36" y2="465.93" stroke="#f59e0b" stroke-width="2" opacity="0.9"/>
<line x1="587.80" y1="483.86" x2="587.80" y2="447.99" stroke="#f59e0b" stroke-width="2" opacity="0.9"/>
<polygon points="587.80,458.93 581.30,471.93 594.30,471.93" fill="#f59e0b" opacity="0.95"/>
<text x="597.80" y="455.93" font-size="12" fill="#111827" font-family="ui-sans-serif, system-ui, -apple-system">scan90 CCS-off (U-only)</text>
<line x1="547.08" y1="424.51" x2="630.18" y2="424.51" stroke="#10b981" stroke-width="2" opacity="0.9"/>
<line x1="588.63" y1="455.57" x2="588.63" y2="393.45" stroke="#10b981" stroke-width="2" opacity="0.9"/>
<polygon points="588.63,417.51 582.13,430.51 595.13,430.51" fill="#10b981" opacity="0.95"/>
<text x="598.63" y="414.51" font-size="12" fill="#111827" font-family="ui-sans-serif, system-ui, -apple-system">scan90 policy (D4)</text>
<line x1="819.40" y1="486.63" x2="912.91" y2="486.63" stroke="#f59e0b" stroke-width="2" opacity="0.9"/>
<line x1="866.15" y1="486.63" x2="866.15" y2="486.63" stroke="#f59e0b" stroke-width="2" opacity="0.9"/>
<polygon points="866.15,479.63 859.65,492.63 872.65,492.63" fill="#f59e0b" opacity="0.95"/>
<text x="876.15" y="476.63" font-size="12" fill="#111827" font-family="ui-sans-serif, system-ui, -apple-system">scan90 U-shuf</text>
<line x1="868.97" y1="465.93" x2="868.97" y2="465.93" stroke="#111827" stroke-width="2" opacity="0.9"/>
<line x1="868.97" y1="501.79" x2="868.97" y2="430.06" stroke="#111827" stroke-width="2" opacity="0.9"/>
<polygon points="868.97,458.93 861.97,465.93 868.97,472.93 875.97,465.93" fill="#111827" opacity="0.95"/>
<text x="878.97" y="455.93" font-size="12" fill="#111827" font-family="ui-sans-serif, system-ui, -apple-system">scan70 fixed100</text>
<line x1="127.09" y1="186.37" x2="127.09" y2="186.37" stroke="#111827" stroke-width="2" opacity="0.9"/>
<line x1="127.09" y1="264.54" x2="127.09" y2="108.21" stroke="#111827" stroke-width="2" opacity="0.9"/>
<polygon points="127.09,179.37 120.09,186.37 127.09,193.37 134.09,186.37" fill="#111827" opacity="0.95"/>
<text x="137.09" y="176.37" font-size="12" fill="#111827" font-family="ui-sans-serif, system-ui, -apple-system">scan70 fixed500</text>
<line x1="571.53" y1="434.87" x2="600.21" y2="434.87" stroke="#111827" stroke-width="2" opacity="0.9"/>
<line x1="585.87" y1="482.31" x2="585.87" y2="387.42" stroke="#111827" stroke-width="2" opacity="0.9"/>
<polygon points="585.87,427.87 578.87,434.87 585.87,441.87 592.87,434.87" fill="#111827" opacity="0.95"/>
<text x="595.87" y="424.87" font-size="12" fill="#111827" font-family="ui-sans-serif, system-ui, -apple-system">scan70 policy</text>
<rect x="94" y="74" width="360" height="138" fill="#ffffff" stroke="#e5e7eb" stroke-width="1"/>
<rect x="106.00" y="92.00" width="12" height="12" fill="#3b82f6" opacity="0.95"/>
<text x="128" y="103" font-size="12" fill="#111827" font-family="ui-sans-serif, system-ui, -apple-system">fixed100/fixed500 (each run)</text>
<circle cx="112.00" cy="128.00" r="6" fill="#10b981" opacity="0.95"/>
<text x="128" y="133" font-size="12" fill="#111827" font-family="ui-sans-serif, system-ui, -apple-system">policy (U+CCS)</text>
<polygon points="112.00,151.00 105.50,164.00 118.50,164.00" fill="#f59e0b" opacity="0.95"/>
<text x="128" y="163" font-size="12" fill="#111827" font-family="ui-sans-serif, system-ui, -apple-system">ablation (U-shuf / CCS-off)</text>
<polygon points="112.00,181.00 105.00,188.00 112.00,195.00 119.00,188.00" fill="#111827" opacity="0.95"/>
<text x="128" y="193" font-size="12" fill="#111827" font-family="ui-sans-serif, system-ui, -apple-system">scan70 points</text>
</svg>
