<svg xmlns="http://www.w3.org/2000/svg" width="900" height="600" viewBox="0 0 900 600">
<rect x="0" y="0" width="900" height="600" fill="#ffffff"/>
<text x="450.0" y="34" font-size="20" text-anchor="middle" fill="#111827" font-family="ui-sans-serif, system-ui, -apple-system">D4B scan90 (S4): CCS-off ablation</text>
<rect x="90" y="60" width="780" height="470" fill="none" stroke="#111827" stroke-width="1.2"/>
<line x1="90.00" y1="60" x2="90.00" y2="530" stroke="#e5e7eb" stroke-width="1"/>
<text x="90.00" y="554" font-size="12" text-anchor="middle" fill="#111827" font-family="ui-sans-serif, system-ui, -apple-system">186.2</text>
<line x1="246.00" y1="60" x2="246.00" y2="530" stroke="#e5e7eb" stroke-width="1"/>
<text x="246.00" y="554" font-size="12" text-anchor="middle" fill="#111827" font-family="ui-sans-serif, system-ui, -apple-system">191.0</text>
<line x1="402.00" y1="60" x2="402.00" y2="530" stroke="#e5e7eb" stroke-width="1"/>
<text x="402.00" y="554" font-size="12" text-anchor="middle" fill="#111827" font-family="ui-sans-serif, system-ui, -apple-system">195.9</text>
<line x1="558.00" y1="60" x2="558.00" y2="530" stroke="#e5e7eb" stroke-width="1"/>
<text x="558.00" y="554" font-size="12" text-anchor="middle" fill="#111827" font-family="ui-sans-serif, system-ui, -apple-system">200.7</text>
<line x1="714.00" y1="60" x2="714.00" y2="530" stroke="#e5e7eb" stroke-width="1"/>
<text x="714.00" y="554" font-size="12" text-anchor="middle" fill="#111827" font-family="ui-sans-serif, system-ui, -apple-system">205.6</text>
<line x1="870.00" y1="60" x2="870.00" y2="530" stroke="#e5e7eb" stroke-width="1"/>
<text x="870.00" y="554" font-size="12" text-anchor="middle" fill="#111827" font-family="ui-sans-serif, system-ui, -apple-system">210.4</text>
<line x1="90" y1="530.00" x2="870" y2="530.00" stroke="#e5e7eb" stroke-width="1"/>
<text x="80" y="534.00" font-size="12" text-anchor="end" fill="#111827" font-family="ui-sans-serif, system-ui, -apple-system">0.036</text>
<line x1="90" y1="436.00" x2="870" y2="436.00" stroke="#e5e7eb" stroke-width="1"/>
<text x="80" y="440.00" font-size="12" text-anchor="end" fill="#111827" font-family="ui-sans-serif, system-ui, -apple-system">0.063</text>
<line x1="90" y1="342.00" x2="870" y2="342.00" stroke="#e5e7eb" stroke-width="1"/>
<text x="80" y="346.00" font-size="12" text-anchor="end" fill="#111827" font-family="ui-sans-serif, system-ui, -apple-system">0.090</text>
<line x1="90" y1="248.00" x2="870" y2="248.00" stroke="#e5e7eb" stroke-width="1"/>
<text x="80" y="252.00" font-size="12" text-anchor="end" fill="#111827" font-family="ui-sans-serif, system-ui, -apple-system">0.117</text>
<line x1="90" y1="154.00" x2="870" y2="154.00" stroke="#e5e7eb" stroke-width="1"/>
<text x="80" y="158.00" font-size="12" text-anchor="end" fill="#111827" font-family="ui-sans-serif, system-ui, -apple-system">0.144</text>
<line x1="90" y1="60.00" x2="870" y2="60.00" stroke="#e5e7eb" stroke-width="1"/>
<text x="80" y="64.00" font-size="12" text-anchor="end" fill="#111827" font-family="ui-sans-serif, system-ui, -apple-system">0.171</text>
<text x="480.0" y="576" font-size="14" text-anchor="middle" fill="#111827" font-family="ui-sans-serif, system-ui, -apple-system">avg_power_mW (mean±std)</text>
<text x="22" y="295.0" font-size="14" text-anchor="middle" fill="#111827" font-family="ui-sans-serif, system-ui, -apple-system" transform="rotate(-90 22 295.0)">pout_1s (mean±std)</text>
<line x1="784.64" y1="371.91" x2="816.21" y2="371.91" stroke="#ef4444" stroke-width="2" opacity="0.9"/>
<line x1="800.42" y1="323.15" x2="800.42" y2="420.67" stroke="#ef4444" stroke-width="2" opacity="0.9"/>
<circle cx="800.42" cy="371.91" r="6" fill="#ef4444" opacity="0.95"/>
<text x="810.42" y="361.91" font-size="12" fill="#111827" font-family="ui-sans-serif, system-ui, -apple-system">fixed100 (adv=1796, share100_rx=1.000, share100_mix=NA)</text>
<line x1="143.79" y1="203.00" x2="162.82" y2="203.00" stroke="#3b82f6" stroke-width="2" opacity="0.9"/>
<line x1="153.31" y1="105.48" x2="153.31" y2="300.52" stroke="#3b82f6" stroke-width="2" opacity="0.9"/>
<circle cx="153.31" cy="203.00" r="6" fill="#3b82f6" opacity="0.95"/>
<text x="163.31" y="193.00" font-size="12" fill="#111827" font-family="ui-sans-serif, system-ui, -apple-system">fixed500 (adv=359, share100_rx=0.000, share100_mix=NA)</text>
<line x1="549.70" y1="484.52" x2="559.15" y2="484.52" stroke="#10b981" stroke-width="2" opacity="0.9"/>
<line x1="554.42" y1="484.52" x2="554.42" y2="484.52" stroke="#10b981" stroke-width="2" opacity="0.9"/>
<circle cx="554.42" cy="484.52" r="6" fill="#10b981" opacity="0.95"/>
<text x="564.42" y="474.52" font-size="12" fill="#111827" font-family="ui-sans-serif, system-ui, -apple-system">policy (adv=1215, share100_rx=0.434, share100_mix=0.620)</text>
<line x1="549.60" y1="428.21" x2="560.72" y2="428.21" stroke="#f59e0b" stroke-width="2" opacity="0.9"/>
<line x1="555.16" y1="379.45" x2="555.16" y2="476.97" stroke="#f59e0b" stroke-width="2" opacity="0.9"/>
<circle cx="555.16" cy="428.21" r="6" fill="#f59e0b" opacity="0.95"/>
<text x="565.16" y="418.21" font-size="12" fill="#111827" font-family="ui-sans-serif, system-ui, -apple-system">ablation_ccs_off (adv=1227, share100_rx=0.429, share100_mix=0.621)</text>
</svg>
