<svg xmlns="http://www.w3.org/2000/svg" width="980" height="640" viewBox="0 0 980 640">
<defs><marker id="arrow" viewBox="0 0 10 10" refX="9" refY="5" markerWidth="7" markerHeight="7" orient="auto-start-reverse"><path d="M 0 0 L 10 5 L 0 10 z" fill="#111827"/></marker></defs>
<rect x="0" y="0" width="980" height="640" fill="#ffffff"/>
<text x="490.0" y="38" font-size="20" text-anchor="middle" fill="#111827" font-family="ui-sans-serif, system-ui, -apple-system">Role separation: U vs CCS vs robustness (S4)</text>
<rect x="90" y="70" width="860" height="490" fill="none" stroke="#111827" stroke-width="1.2"/>
<line x1="90.00" y1="70" x2="90.00" y2="560" stroke="#e5e7eb" stroke-width="1"/>
<text x="90.00" y="588" font-size="12" text-anchor="middle" fill="#111827" font-family="ui-sans-serif, system-ui, -apple-system">186.0</text>
<line x1="262.00" y1="70" x2="262.00" y2="560" stroke="#e5e7eb" stroke-width="1"/>
<text x="262.00" y="588" font-size="12" text-anchor="middle" fill="#111827" font-family="ui-sans-serif, system-ui, -apple-system">191.3</text>
<line x1="434.00" y1="70" x2="434.00" y2="560" stroke="#e5e7eb" stroke-width="1"/>
<text x="434.00" y="588" font-size="12" text-anchor="middle" fill="#111827" font-family="ui-sans-serif, system-ui, -apple-system">196.5</text>
<line x1="606.00" y1="70" x2="606.00" y2="560" stroke="#e5e7eb" stroke-width="1"/>
<text x="606.00" y="588" font-size="12" text-anchor="middle" fill="#111827" font-family="ui-sans-serif, system-ui, -apple-system">201.8</text>
<line x1="778.00" y1="70" x2="778.00" y2="560" stroke="#e5e7eb" stroke-width="1"/>
<text x="778.00" y="588" font-size="12" text-anchor="middle" fill="#111827" font-family="ui-sans-serif, system-ui, -apple-system">207.0</text>
<line x1="950.00" y1="70" x2="950.00" y2="560" stroke="#e5e7eb" stroke-width="1"/>
<text x="950.00" y="588" font-size="12" text-anchor="middle" fill="#111827" font-family="ui-sans-serif, system-ui, -apple-system">212.2</text>
<line x1="90" y1="560.00" x2="950" y2="560.00" stroke="#e5e7eb" stroke-width="1"/>
<text x="80" y="564.00" font-size="12" text-anchor="end" fill="#111827" font-family="ui-sans-serif, system-ui, -apple-system">0.000</text>
<line x1="90" y1="462.00" x2="950" y2="462.00" stroke="#e5e7eb" stroke-width="1"/>
<text x="80" y="466.00" font-size="12" text-anchor="end" fill="#111827" font-family="ui-sans-serif, system-ui, -apple-system">0.080</text>
<line x1="90" y1="364.00" x2="950" y2="364.00" stroke="#e5e7eb" stroke-width="1"/>
<text x="80" y="368.00" font-size="12" text-anchor="end" fill="#111827" font-family="ui-sans-serif, system-ui, -apple-system">0.161</text>
<line x1="90" y1="266.00" x2="950" y2="266.00" stroke="#e5e7eb" stroke-width="1"/>
<text x="80" y="270.00" font-size="12" text-anchor="end" fill="#111827" font-family="ui-sans-serif, system-ui, -apple-system">0.241</text>
<line x1="90" y1="168.00" x2="950" y2="168.00" stroke="#e5e7eb" stroke-width="1"/>
<text x="80" y="172.00" font-size="12" text-anchor="end" fill="#111827" font-family="ui-sans-serif, system-ui, -apple-system">0.321</text>
<line x1="90" y1="70.00" x2="950" y2="70.00" stroke="#e5e7eb" stroke-width="1"/>
<text x="80" y="74.00" font-size="12" text-anchor="end" fill="#111827" font-family="ui-sans-serif, system-ui, -apple-system">0.402</text>
<text x="520.0" y="614" font-size="14" text-anchor="middle" fill="#111827" font-family="ui-sans-serif, system-ui, -apple-system">avg_power_mW (lower=better)</text>
<text x="22" y="315.0" font-size="14" text-anchor="middle" fill="#111827" font-family="ui-sans-serif, system-ui, -apple-system" transform="rotate(-90 22 315.0)">pout_1s (lower=better)</text>
<line x1="814.85" y1="500.48" x2="569.01" y2="500.48" stroke="#111827" stroke-width="2" marker-end="url(#arrow)" opacity="0.85"/>
<text x="697.93" y="494.48" font-size="12" fill="#111827" font-family="ui-sans-serif, system-ui, -apple-system">U effect</text>
<line x1="569.76" y1="480.64" x2="569.01" y2="500.48" stroke="#111827" stroke-width="2" marker-end="url(#arrow)" opacity="0.85"/>
<text x="575.39" y="484.56" font-size="12" fill="#111827" font-family="ui-sans-serif, system-ui, -apple-system">CCS effect</text>
<line x1="159.04" y1="401.27" x2="204.74" y2="212.78" stroke="#111827" stroke-width="2" marker-end="url(#arrow)" opacity="0.85"/>
<text x="187.89" y="301.03" font-size="12" fill="#111827" font-family="ui-sans-serif, system-ui, -apple-system">worse RX (scan70)</text>
<line x1="569.01" y1="500.48" x2="618.00" y2="450.87" stroke="#111827" stroke-width="2" marker-end="url(#arrow)" opacity="0.85"/>
<text x="599.50" y="469.68" font-size="12" fill="#111827" font-family="ui-sans-serif, system-ui, -apple-system">robustness</text>
<line x1="804.31" y1="460.79" x2="836.57" y2="460.79" stroke="#3b82f6" stroke-width="2" opacity="0.9"/>
<line x1="820.44" y1="477.98" x2="820.44" y2="443.61" stroke="#3b82f6" stroke-width="2" opacity="0.9"/>
<rect x="814.44" y="454.79" width="12" height="12" fill="#3b82f6" opacity="0.95"/>
<text x="830.44" y="450.79" font-size="12" fill="#111827" font-family="ui-sans-serif, system-ui, -apple-system">fixed100 (scan90)</text>
<line x1="149.31" y1="401.27" x2="168.76" y2="401.27" stroke="#3b82f6" stroke-width="2" opacity="0.9"/>
<line x1="159.04" y1="435.64" x2="159.04" y2="366.91" stroke="#3b82f6" stroke-width="2" opacity="0.9"/>
<rect x="153.04" y="395.27" width="12" height="12" fill="#3b82f6" opacity="0.95"/>
<text x="169.04" y="391.27" font-size="12" fill="#111827" font-family="ui-sans-serif, system-ui, -apple-system">fixed500 (scan90)</text>
<line x1="564.18" y1="500.48" x2="573.84" y2="500.48" stroke="#10b981" stroke-width="2" opacity="0.9"/>
<line x1="569.01" y1="500.48" x2="569.01" y2="500.48" stroke="#10b981" stroke-width="2" opacity="0.9"/>
<circle cx="569.01" cy="500.48" r="6" fill="#10b981" opacity="0.95"/>
<text x="579.01" y="490.48" font-size="12" fill="#111827" font-family="ui-sans-serif, system-ui, -apple-system">policy U+CCS (scan90)</text>
<line x1="806.24" y1="500.48" x2="823.46" y2="500.48" stroke="#f59e0b" stroke-width="2" opacity="0.9"/>
<line x1="814.85" y1="500.48" x2="814.85" y2="500.48" stroke="#f59e0b" stroke-width="2" opacity="0.9"/>
<polygon points="814.85,493.48 808.35,506.48 821.35,506.48" fill="#f59e0b" opacity="0.95"/>
<text x="824.85" y="490.48" font-size="12" fill="#111827" font-family="ui-sans-serif, system-ui, -apple-system">ablation U-shuf (scan90)</text>
<line x1="564.08" y1="480.64" x2="575.45" y2="480.64" stroke="#f59e0b" stroke-width="2" opacity="0.9"/>
<line x1="569.76" y1="497.82" x2="569.76" y2="463.45" stroke="#f59e0b" stroke-width="2" opacity="0.9"/>
<polygon points="569.76,473.64 563.26,486.64 576.26,486.64" fill="#f59e0b" opacity="0.95"/>
<text x="579.76" y="470.64" font-size="12" fill="#111827" font-family="ui-sans-serif, system-ui, -apple-system">ablation CCS-off (U-only)</text>
<line x1="855.33" y1="480.64" x2="890.69" y2="480.64" stroke="#111827" stroke-width="2" opacity="0.9"/>
<line x1="873.01" y1="515.00" x2="873.01" y2="446.27" stroke="#111827" stroke-width="2" opacity="0.9"/>
<polygon points="873.01,473.64 866.01,480.64 873.01,487.64 880.01,480.64" fill="#111827" opacity="0.95"/>
<text x="883.01" y="470.64" font-size="12" fill="#111827" font-family="ui-sans-serif, system-ui, -apple-system">fixed100 (scan70)</text>
<line x1="189.20" y1="212.78" x2="220.28" y2="212.78" stroke="#111827" stroke-width="2" opacity="0.9"/>
<line x1="204.74" y1="287.68" x2="204.74" y2="137.88" stroke="#111827" stroke-width="2" opacity="0.9"/>
<polygon points="204.74,205.78 197.74,212.78 204.74,219.78 211.74,212.78" fill="#111827" opacity="0.95"/>
<text x="214.74" y="202.78" font-size="12" fill="#111827" font-family="ui-sans-serif, system-ui, -apple-system">fixed500 (scan70)</text>
<line x1="614.52" y1="450.87" x2="621.48" y2="450.87" stroke="#111827" stroke-width="2" opacity="0.9"/>
<line x1="618.00" y1="496.34" x2="618.00" y2="405.41" stroke="#111827" stroke-width="2" opacity="0.9"/>
<polygon points="618.00,443.87 611.00,450.87 618.00,457.87 625.00,450.87" fill="#111827" opacity="0.95"/>
<text x="628.00" y="440.87" font-size="12" fill="#111827" font-family="ui-sans-serif, system-ui, -apple-system">policy U+CCS (scan70)</text>
<rect x="94" y="74" width="360" height="128" fill="#ffffff" stroke="#e5e7eb" stroke-width="1"/>
<rect x="106.00" y="92.00" width="12" height="12" fill="#3b82f6" opacity="0.95"/>
<text x="128" y="103" font-size="12" fill="#111827" font-family="ui-sans-serif, system-ui, -apple-system">scan90 fixed</text>
<circle cx="112.00" cy="126.00" r="6" fill="#10b981" opacity="0.95"/>
<text x="128" y="131" font-size="12" fill="#111827" font-family="ui-sans-serif, system-ui, -apple-system">scan90 policy</text>
<polygon points="112.00,147.00 105.50,160.00 118.50,160.00" fill="#f59e0b" opacity="0.95"/>
<text x="128" y="159" font-size="12" fill="#111827" font-family="ui-sans-serif, system-ui, -apple-system">scan90 ablation</text>
<polygon points="112.00,175.00 105.00,182.00 112.00,189.00 119.00,182.00" fill="#111827" opacity="0.95"/>
<text x="128" y="187" font-size="12" fill="#111827" font-family="ui-sans-serif, system-ui, -apple-system">scan70 (worse RX)</text>
</svg>
