<svg xmlns="http://www.w3.org/2000/svg" width="900" height="600" viewBox="0 0 900 600">
<rect x="0" y="0" width="900" height="600" fill="#ffffff"/>
<text x="450.0" y="34" font-size="20" text-anchor="middle" fill="#111827" font-family="ui-sans-serif, system-ui, -apple-system">D4B scan90 (S4): CCS-off ablation</text>
<rect x="90" y="60" width="780" height="470" fill="none" stroke="#111827" stroke-width="1.2"/>
<line x1="90.00" y1="60" x2="90.00" y2="530" stroke="#e5e7eb" stroke-width="1"/>
<text x="90.00" y="554" font-size="12" text-anchor="middle" fill="#111827" font-family="ui-sans-serif, system-ui, -apple-system">185.6</text>
<line x1="246.00" y1="60" x2="246.00" y2="530" stroke="#e5e7eb" stroke-width="1"/>
<text x="246.00" y="554" font-size="12" text-anchor="middle" fill="#111827" font-family="ui-sans-serif, system-ui, -apple-system">190.2</text>
<line x1="402.00" y1="60" x2="402.00" y2="530" stroke="#e5e7eb" stroke-width="1"/>
<text x="402.00" y="554" font-size="12" text-anchor="middle" fill="#111827" font-family="ui-sans-serif, system-ui, -apple-system">194.7</text>
<line x1="558.00" y1="60" x2="558.00" y2="530" stroke="#e5e7eb" stroke-width="1"/>
<text x="558.00" y="554" font-size="12" text-anchor="middle" fill="#111827" font-family="ui-sans-serif, system-ui, -apple-system">199.3</text>
<line x1="714.00" y1="60" x2="714.00" y2="530" stroke="#e5e7eb" stroke-width="1"/>
<text x="714.00" y="554" font-size="12" text-anchor="middle" fill="#111827" font-family="ui-sans-serif, system-ui, -apple-system">203.8</text>
<line x1="870.00" y1="60" x2="870.00" y2="530" stroke="#e5e7eb" stroke-width="1"/>
<text x="870.00" y="554" font-size="12" text-anchor="middle" fill="#111827" font-family="ui-sans-serif, system-ui, -apple-system">208.4</text>
<line x1="90" y1="530.00" x2="870" y2="530.00" stroke="#e5e7eb" stroke-width="1"/>
<text x="80" y="534.00" font-size="12" text-anchor="end" fill="#111827" font-family="ui-sans-serif, system-ui, -apple-system">0.000</text>
<line x1="90" y1="436.00" x2="870" y2="436.00" stroke="#e5e7eb" stroke-width="1"/>
<text x="80" y="440.00" font-size="12" text-anchor="end" fill="#111827" font-family="ui-sans-serif, system-ui, -apple-system">0.059</text>
<line x1="90" y1="342.00" x2="870" y2="342.00" stroke="#e5e7eb" stroke-width="1"/>
<text x="80" y="346.00" font-size="12" text-anchor="end" fill="#111827" font-family="ui-sans-serif, system-ui, -apple-system">0.119</text>
<line x1="90" y1="248.00" x2="870" y2="248.00" stroke="#e5e7eb" stroke-width="1"/>
<text x="80" y="252.00" font-size="12" text-anchor="end" fill="#111827" font-family="ui-sans-serif, system-ui, -apple-system">0.178</text>
<line x1="90" y1="154.00" x2="870" y2="154.00" stroke="#e5e7eb" stroke-width="1"/>
<text x="80" y="158.00" font-size="12" text-anchor="end" fill="#111827" font-family="ui-sans-serif, system-ui, -apple-system">0.238</text>
<line x1="90" y1="60.00" x2="870" y2="60.00" stroke="#e5e7eb" stroke-width="1"/>
<text x="80" y="64.00" font-size="12" text-anchor="end" fill="#111827" font-family="ui-sans-serif, system-ui, -apple-system">0.297</text>
<text x="480.0" y="576" font-size="14" text-anchor="middle" fill="#111827" font-family="ui-sans-serif, system-ui, -apple-system">avg_power_mW (mean±std)</text>
<text x="22" y="295.0" font-size="14" text-anchor="middle" fill="#111827" font-family="ui-sans-serif, system-ui, -apple-system" transform="rotate(-90 22 295.0)">pout_1s (mean±std)</text>
<line x1="784.35" y1="491.46" x2="816.21" y2="491.46" stroke="#ef4444" stroke-width="2" opacity="0.9"/>
<line x1="800.28" y1="452.91" x2="800.28" y2="530.00" stroke="#ef4444" stroke-width="2" opacity="0.9"/>
<circle cx="800.28" cy="491.46" r="6" fill="#ef4444" opacity="0.95"/>
<text x="810.28" y="481.46" font-size="12" fill="#111827" font-family="ui-sans-serif, system-ui, -apple-system">fixed100 (adv=1800, share100_rx=1.000, share100_mix=NA)</text>
<line x1="143.79" y1="170.24" x2="169.07" y2="170.24" stroke="#3b82f6" stroke-width="2" opacity="0.9"/>
<line x1="156.43" y1="111.36" x2="156.43" y2="229.12" stroke="#3b82f6" stroke-width="2" opacity="0.9"/>
<circle cx="156.43" cy="170.24" r="6" fill="#3b82f6" opacity="0.95"/>
<text x="166.43" y="160.24" font-size="12" fill="#111827" font-family="ui-sans-serif, system-ui, -apple-system">fixed500 (adv=360, share100_rx=NA, share100_mix=NA)</text>
<line x1="596.11" y1="504.30" x2="663.17" y2="504.30" stroke="#10b981" stroke-width="2" opacity="0.9"/>
<line x1="629.64" y1="482.05" x2="629.64" y2="526.56" stroke="#10b981" stroke-width="2" opacity="0.9"/>
<circle cx="629.64" cy="504.30" r="6" fill="#10b981" opacity="0.95"/>
<text x="639.64" y="494.30" font-size="12" fill="#111827" font-family="ui-sans-serif, system-ui, -apple-system">policy (adv=1323, share100_rx=0.514, share100_mix=0.735)</text>
<line x1="617.62" y1="517.15" x2="699.27" y2="517.15" stroke="#f59e0b" stroke-width="2" opacity="0.9"/>
<line x1="658.45" y1="494.90" x2="658.45" y2="539.41" stroke="#f59e0b" stroke-width="2" opacity="0.9"/>
<circle cx="658.45" cy="517.15" r="6" fill="#f59e0b" opacity="0.95"/>
<text x="668.45" y="507.15" font-size="12" fill="#111827" font-family="ui-sans-serif, system-ui, -apple-system">ablation_ccs_off (adv=1323, share100_rx=0.533, share100_mix=0.780)</text>
</svg>
