<svg xmlns="http://www.w3.org/2000/svg" width="980" height="620" viewBox="0 0 980 620">
<rect x="0" y="0" width="980" height="620" fill="#ffffff"/>
<text x="490.0" y="38" font-size="20" text-anchor="middle" fill="#111827" font-family="ui-sans-serif, system-ui, -apple-system">Estimated 100ms share ρ̂100 vs QoS (S4)</text>
<rect x="80" y="60" width="880" height="495" fill="none" stroke="#111827" stroke-width="1.2"/>
<line x1="80.00" y1="60" x2="80.00" y2="555" stroke="#e5e7eb" stroke-width="1"/>
<text x="80.00" y="581" font-size="12" text-anchor="middle" fill="#111827" font-family="ui-sans-serif, system-ui, -apple-system">0</text>
<line x1="300.00" y1="60" x2="300.00" y2="555" stroke="#e5e7eb" stroke-width="1"/>
<text x="300.00" y="581" font-size="12" text-anchor="middle" fill="#111827" font-family="ui-sans-serif, system-ui, -apple-system">0.25</text>
<line x1="520.00" y1="60" x2="520.00" y2="555" stroke="#e5e7eb" stroke-width="1"/>
<text x="520.00" y="581" font-size="12" text-anchor="middle" fill="#111827" font-family="ui-sans-serif, system-ui, -apple-system">0.5</text>
<line x1="740.00" y1="60" x2="740.00" y2="555" stroke="#e5e7eb" stroke-width="1"/>
<text x="740.00" y="581" font-size="12" text-anchor="middle" fill="#111827" font-family="ui-sans-serif, system-ui, -apple-system">0.75</text>
<line x1="960.00" y1="60" x2="960.00" y2="555" stroke="#e5e7eb" stroke-width="1"/>
<text x="960.00" y="581" font-size="12" text-anchor="middle" fill="#111827" font-family="ui-sans-serif, system-ui, -apple-system">1</text>
<line x1="80" y1="555.00" x2="960" y2="555.00" stroke="#e5e7eb" stroke-width="1"/>
<text x="70" y="559.00" font-size="12" text-anchor="end" fill="#111827" font-family="ui-sans-serif, system-ui, -apple-system">0</text>
<line x1="80" y1="484.29" x2="960" y2="484.29" stroke="#e5e7eb" stroke-width="1"/>
<text x="70" y="488.29" font-size="12" text-anchor="end" fill="#111827" font-family="ui-sans-serif, system-ui, -apple-system">0.05</text>
<line x1="80" y1="413.57" x2="960" y2="413.57" stroke="#e5e7eb" stroke-width="1"/>
<text x="70" y="417.57" font-size="12" text-anchor="end" fill="#111827" font-family="ui-sans-serif, system-ui, -apple-system">0.1</text>
<line x1="80" y1="342.86" x2="960" y2="342.86" stroke="#e5e7eb" stroke-width="1"/>
<text x="70" y="346.86" font-size="12" text-anchor="end" fill="#111827" font-family="ui-sans-serif, system-ui, -apple-system">0.15</text>
<line x1="80" y1="272.14" x2="960" y2="272.14" stroke="#e5e7eb" stroke-width="1"/>
<text x="70" y="276.14" font-size="12" text-anchor="end" fill="#111827" font-family="ui-sans-serif, system-ui, -apple-system">0.2</text>
<line x1="80" y1="201.43" x2="960" y2="201.43" stroke="#e5e7eb" stroke-width="1"/>
<text x="70" y="205.43" font-size="12" text-anchor="end" fill="#111827" font-family="ui-sans-serif, system-ui, -apple-system">0.25</text>
<line x1="80" y1="130.71" x2="960" y2="130.71" stroke="#e5e7eb" stroke-width="1"/>
<text x="70" y="134.71" font-size="12" text-anchor="end" fill="#111827" font-family="ui-sans-serif, system-ui, -apple-system">0.3</text>
<line x1="80" y1="60.00" x2="960" y2="60.00" stroke="#e5e7eb" stroke-width="1"/>
<text x="70" y="64.00" font-size="12" text-anchor="end" fill="#111827" font-family="ui-sans-serif, system-ui, -apple-system">0.35</text>
<text x="520.0" y="596" font-size="14" text-anchor="middle" fill="#111827" font-family="ui-sans-serif, system-ui, -apple-system">Estimated 100ms share ρ̂100 (power-mix)</text>
<text x="22" y="307.5" font-size="14" text-anchor="middle" fill="#111827" font-family="ui-sans-serif, system-ui, -apple-system" transform="rotate(-90 22 307.5)">pout_1s (lower=better)</text>
<line x1="80" y1="413.57" x2="960" y2="413.57" stroke="#9ca3af" stroke-width="2" stroke-dasharray="6 4"/>
<text x="950" y="405.57" font-size="12" text-anchor="end" fill="#6b7280" font-family="ui-sans-serif, system-ui, -apple-system">ε=0.1</text>
<line x1="960.00" y1="440.02" x2="960.00" y2="440.02" stroke="#3b82f6" stroke-width="2" opacity="0.9"/>
<line x1="960.00" y1="459.93" x2="960.00" y2="420.10" stroke="#3b82f6" stroke-width="2" opacity="0.9"/>
<rect x="954.00" y="434.02" width="12" height="12" fill="#3b82f6" opacity="0.95"/>
<line x1="80.00" y1="371.03" x2="80.00" y2="371.03" stroke="#3b82f6" stroke-width="2" opacity="0.9"/>
<line x1="80.00" y1="410.86" x2="80.00" y2="331.20" stroke="#3b82f6" stroke-width="2" opacity="0.9"/>
<rect x="74.00" y="365.03" width="12" height="12" fill="#3b82f6" opacity="0.95"/>
<text x="90.00" y="361.03" font-size="12" text-anchor="start" fill="#111827" style="paint-order: stroke; stroke: #ffffff; stroke-width: 4px; stroke-linejoin: round;" font-family="ui-sans-serif, system-ui, -apple-system">fixed500 (90)</text>
<line x1="609.90" y1="486.01" x2="641.04" y2="486.01" stroke="#10b981" stroke-width="2" opacity="0.9"/>
<line x1="625.47" y1="486.01" x2="625.47" y2="486.01" stroke="#10b981" stroke-width="2" opacity="0.9"/>
<circle cx="625.47" cy="486.01" r="6" fill="#10b981" opacity="0.95"/>
<text x="637.47" y="504.01" font-size="12" text-anchor="start" fill="#111827" style="paint-order: stroke; stroke: #ffffff; stroke-width: 4px; stroke-linejoin: round;" font-family="ui-sans-serif, system-ui, -apple-system">policy (90)</text>
<line x1="610.38" y1="463.01" x2="642.57" y2="463.01" stroke="#f59e0b" stroke-width="2" opacity="0.9"/>
<line x1="626.48" y1="482.93" x2="626.48" y2="443.10" stroke="#f59e0b" stroke-width="2" opacity="0.9"/>
<polygon points="626.48,456.01 619.98,469.01 632.98,469.01" fill="#f59e0b" opacity="0.95"/>
<text x="638.48" y="451.01" font-size="12" text-anchor="start" fill="#111827" style="paint-order: stroke; stroke: #ffffff; stroke-width: 4px; stroke-linejoin: round;" font-family="ui-sans-serif, system-ui, -apple-system">CCS-off</text>
<line x1="901.20" y1="486.01" x2="960.00" y2="486.01" stroke="#f59e0b" stroke-width="2" opacity="0.9"/>
<line x1="956.65" y1="486.01" x2="956.65" y2="486.01" stroke="#f59e0b" stroke-width="2" opacity="0.9"/>
<polygon points="956.65,479.01 950.15,492.01 963.15,492.01" fill="#f59e0b" opacity="0.95"/>
<text x="944.65" y="504.01" font-size="12" text-anchor="end" fill="#111827" style="paint-order: stroke; stroke: #ffffff; stroke-width: 4px; stroke-linejoin: round;" font-family="ui-sans-serif, system-ui, -apple-system">U-shuf</text>
<line x1="80.00" y1="152.56" x2="80.00" y2="152.56" stroke="#111827" stroke-width="2" opacity="0.9"/>
<line x1="80.00" y1="239.37" x2="80.00" y2="65.75" stroke="#111827" stroke-width="2" opacity="0.9"/>
<polygon points="80.00,145.56 73.00,152.56 80.00,159.56 87.00,152.56" fill="#111827" opacity="0.95"/>
<text x="90.00" y="142.56" font-size="12" text-anchor="start" fill="#111827" style="paint-order: stroke; stroke: #ffffff; stroke-width: 4px; stroke-linejoin: round;" font-family="ui-sans-serif, system-ui, -apple-system">fixed500 (70)</text>
<line x1="607.18" y1="428.52" x2="641.20" y2="428.52" stroke="#111827" stroke-width="2" opacity="0.9"/>
<line x1="624.19" y1="481.21" x2="624.19" y2="375.83" stroke="#111827" stroke-width="2" opacity="0.9"/>
<polygon points="624.19,421.52 617.19,428.52 624.19,435.52 631.19,428.52" fill="#111827" opacity="0.95"/>
<text x="636.19" y="418.52" font-size="12" text-anchor="start" fill="#111827" style="paint-order: stroke; stroke: #ffffff; stroke-width: 4px; stroke-linejoin: round;" font-family="ui-sans-serif, system-ui, -apple-system">policy (70)</text>
<rect x="684" y="64" width="260" height="128" fill="#ffffff" stroke="#e5e7eb" stroke-width="1"/>
<rect x="696.00" y="82.00" width="12" height="12" fill="#3b82f6" opacity="0.95"/>
<text x="718" y="93" font-size="12" fill="#111827" font-family="ui-sans-serif, system-ui, -apple-system">scan90 fixed (100/500)</text>
<circle cx="702.00" cy="118.00" r="6" fill="#10b981" opacity="0.95"/>
<text x="718" y="123" font-size="12" fill="#111827" font-family="ui-sans-serif, system-ui, -apple-system">scan90 policy</text>
<polygon points="702.00,141.00 695.50,154.00 708.50,154.00" fill="#f59e0b" opacity="0.95"/>
<text x="718" y="153" font-size="12" fill="#111827" font-family="ui-sans-serif, system-ui, -apple-system">scan90 ablation</text>
<polygon points="702.00,171.00 695.00,178.00 702.00,185.00 709.00,178.00" fill="#111827" opacity="0.95"/>
<text x="718" y="183" font-size="12" fill="#111827" font-family="ui-sans-serif, system-ui, -apple-system">scan70 (worse RX)</text>
</svg>
