<svg xmlns="http://www.w3.org/2000/svg" width="1000" height="560" viewBox="0 0 1000 560">
<defs><marker id="arr" viewBox="0 0 10 10" refX="9" refY="5" markerWidth="7" markerHeight="7" orient="auto-start-reverse"><path d="M 0 0 L 10 5 L 0 10 z" fill="#111827"/></marker></defs>
<rect x="0" y="0" width="1000" height="560" fill="#ffffff"/>
<text x="500.0" y="38" font-size="20" text-anchor="middle" fill="#111827" font-family="ui-sans-serif, system-ui, -apple-system">D4B outage story (S4, scan70) (TL&gt;1.0s)</text>
<rect x="80" y="70" width="890" height="400" fill="none" stroke="#111827" stroke-width="1.2"/>
<line x1="80.00" y1="70" x2="80.00" y2="470" stroke="#e5e7eb" stroke-width="1"/>
<text x="80.00" y="498" font-size="12" text-anchor="middle" fill="#111827" font-family="ui-sans-serif, system-ui, -apple-system">-3.0</text>
<line x1="226.97" y1="70" x2="226.97" y2="470" stroke="#e5e7eb" stroke-width="1"/>
<text x="226.97" y="498" font-size="12" text-anchor="middle" fill="#111827" font-family="ui-sans-serif, system-ui, -apple-system">0.6</text>
<line x1="378.03" y1="70" x2="378.03" y2="470" stroke="#e5e7eb" stroke-width="1"/>
<text x="378.03" y="498" font-size="12" text-anchor="middle" fill="#111827" font-family="ui-sans-serif, system-ui, -apple-system">4.3</text>
<line x1="525.00" y1="70" x2="525.00" y2="470" stroke="#e5e7eb" stroke-width="1"/>
<text x="525.00" y="498" font-size="12" text-anchor="middle" fill="#111827" font-family="ui-sans-serif, system-ui, -apple-system">7.9</text>
<line x1="671.97" y1="70" x2="671.97" y2="470" stroke="#e5e7eb" stroke-width="1"/>
<text x="671.97" y="498" font-size="12" text-anchor="middle" fill="#111827" font-family="ui-sans-serif, system-ui, -apple-system">11.5</text>
<line x1="823.03" y1="70" x2="823.03" y2="470" stroke="#e5e7eb" stroke-width="1"/>
<text x="823.03" y="498" font-size="12" text-anchor="middle" fill="#111827" font-family="ui-sans-serif, system-ui, -apple-system">15.2</text>
<line x1="970.00" y1="70" x2="970.00" y2="470" stroke="#e5e7eb" stroke-width="1"/>
<text x="970.00" y="498" font-size="12" text-anchor="middle" fill="#111827" font-family="ui-sans-serif, system-ui, -apple-system">18.8</text>
<text x="525.0" y="538" font-size="14" text-anchor="middle" fill="#111827" font-family="ui-sans-serif, system-ui, -apple-system">time relative to selected transition [s]</text>
<line x1="202.48" y1="70" x2="202.48" y2="470" stroke="#6b7280" stroke-width="2" stroke-dasharray="6 4"/>
<text x="208.48" y="60" font-size="12" fill="#6b7280" font-family="ui-sans-serif, system-ui, -apple-system">truth transition (label=6)</text>
<text x="80" y="88" font-size="13" fill="#111827" font-family="ui-sans-serif, system-ui, -apple-system">U-only (CCS-off) (TL=15.77s)</text>
<rect x="80.00" y="98.00" width="77.57" height="26" fill="#ef4444" opacity="0.22"/>
<rect x="161.65" y="98.00" width="48.99" height="26" fill="#3b82f6" opacity="0.22"/>
<rect x="214.72" y="98.00" width="302.11" height="26" fill="#ef4444" opacity="0.22"/>
<rect x="520.92" y="98.00" width="322.52" height="26" fill="#3b82f6" opacity="0.22"/>
<rect x="847.52" y="98.00" width="122.48" height="26" fill="#ef4444" opacity="0.22"/>
<text x="86" y="116" font-size="12" fill="#111827" font-family="ui-sans-serif, system-ui, -apple-system">interval</text>
<line x1="161.65" y1="154.00" x2="161.65" y2="172.00" stroke="#111827" stroke-width="1.4" opacity="0.9"/>
<line x1="182.06" y1="154.00" x2="182.06" y2="172.00" stroke="#111827" stroke-width="1.4" opacity="0.9"/>
<line x1="214.72" y1="154.00" x2="214.72" y2="172.00" stroke="#111827" stroke-width="1.4" opacity="0.9"/>
<line x1="222.89" y1="154.00" x2="222.89" y2="172.00" stroke="#111827" stroke-width="1.4" opacity="0.9"/>
<line x1="235.14" y1="154.00" x2="235.14" y2="172.00" stroke="#111827" stroke-width="1.4" opacity="0.9"/>
<line x1="247.39" y1="154.00" x2="247.39" y2="172.00" stroke="#111827" stroke-width="1.4" opacity="0.9"/>
<line x1="259.63" y1="154.00" x2="259.63" y2="172.00" stroke="#111827" stroke-width="1.4" opacity="0.9"/>
<line x1="280.05" y1="154.00" x2="280.05" y2="172.00" stroke="#111827" stroke-width="1.4" opacity="0.9"/>
<line x1="288.21" y1="154.00" x2="288.21" y2="172.00" stroke="#111827" stroke-width="1.4" opacity="0.9"/>
<line x1="300.46" y1="154.00" x2="300.46" y2="172.00" stroke="#111827" stroke-width="1.4" opacity="0.9"/>
<line x1="312.71" y1="154.00" x2="312.71" y2="172.00" stroke="#111827" stroke-width="1.4" opacity="0.9"/>
<line x1="324.95" y1="154.00" x2="324.95" y2="172.00" stroke="#111827" stroke-width="1.4" opacity="0.9"/>
<line x1="333.12" y1="154.00" x2="333.12" y2="172.00" stroke="#111827" stroke-width="1.4" opacity="0.9"/>
<line x1="345.37" y1="154.00" x2="345.37" y2="172.00" stroke="#111827" stroke-width="1.4" opacity="0.9"/>
<line x1="357.61" y1="154.00" x2="357.61" y2="172.00" stroke="#111827" stroke-width="1.4" opacity="0.9"/>
<line x1="373.94" y1="154.00" x2="373.94" y2="172.00" stroke="#111827" stroke-width="1.4" opacity="0.9"/>
<line x1="386.19" y1="154.00" x2="386.19" y2="172.00" stroke="#111827" stroke-width="1.4" opacity="0.9"/>
<line x1="398.44" y1="154.00" x2="398.44" y2="172.00" stroke="#111827" stroke-width="1.4" opacity="0.9"/>
<line x1="410.69" y1="154.00" x2="410.69" y2="172.00" stroke="#111827" stroke-width="1.4" opacity="0.9"/>
<line x1="422.94" y1="154.00" x2="422.94" y2="172.00" stroke="#111827" stroke-width="1.4" opacity="0.9"/>
<line x1="431.10" y1="154.00" x2="431.10" y2="172.00" stroke="#111827" stroke-width="1.4" opacity="0.9"/>
<line x1="443.35" y1="154.00" x2="443.35" y2="172.00" stroke="#111827" stroke-width="1.4" opacity="0.9"/>
<line x1="459.68" y1="154.00" x2="459.68" y2="172.00" stroke="#111827" stroke-width="1.4" opacity="0.9"/>
<line x1="471.93" y1="154.00" x2="471.93" y2="172.00" stroke="#111827" stroke-width="1.4" opacity="0.9"/>
<line x1="484.17" y1="154.00" x2="484.17" y2="172.00" stroke="#111827" stroke-width="1.4" opacity="0.9"/>
<line x1="496.42" y1="154.00" x2="496.42" y2="172.00" stroke="#111827" stroke-width="1.4" opacity="0.9"/>
<line x1="508.67" y1="154.00" x2="508.67" y2="172.00" stroke="#111827" stroke-width="1.4" opacity="0.9"/>
<line x1="520.92" y1="154.00" x2="520.92" y2="172.00" stroke="#111827" stroke-width="1.4" opacity="0.9"/>
<line x1="541.33" y1="154.00" x2="541.33" y2="172.00" stroke="#111827" stroke-width="1.4" opacity="0.9"/>
<line x1="582.16" y1="154.00" x2="582.16" y2="172.00" stroke="#111827" stroke-width="1.4" opacity="0.9"/>
<line x1="643.39" y1="154.00" x2="643.39" y2="172.00" stroke="#111827" stroke-width="1.4" opacity="0.9"/>
<line x1="663.81" y1="154.00" x2="663.81" y2="172.00" stroke="#111827" stroke-width="1.4" opacity="0.9"/>
<line x1="684.22" y1="154.00" x2="684.22" y2="172.00" stroke="#111827" stroke-width="1.4" opacity="0.9"/>
<line x1="704.63" y1="154.00" x2="704.63" y2="172.00" stroke="#111827" stroke-width="1.4" opacity="0.9"/>
<line x1="725.05" y1="154.00" x2="725.05" y2="172.00" stroke="#111827" stroke-width="1.4" opacity="0.9"/>
<line x1="765.87" y1="154.00" x2="765.87" y2="172.00" stroke="#111827" stroke-width="1.4" opacity="0.9"/>
<line x1="786.28" y1="154.00" x2="786.28" y2="172.00" stroke="#111827" stroke-width="1.4" opacity="0.9"/>
<line x1="810.78" y1="154.00" x2="810.78" y2="172.00" stroke="#111827" stroke-width="1.4" opacity="0.9"/>
<line x1="831.19" y1="154.00" x2="831.19" y2="172.00" stroke="#111827" stroke-width="1.4" opacity="0.9"/>
<line x1="847.52" y1="154.00" x2="847.52" y2="172.00" stroke="#10b981" stroke-width="1.4" opacity="0.9"/>
<line x1="855.69" y1="154.00" x2="855.69" y2="172.00" stroke="#10b981" stroke-width="1.4" opacity="0.9"/>
<line x1="867.94" y1="154.00" x2="867.94" y2="172.00" stroke="#10b981" stroke-width="1.4" opacity="0.9"/>
<line x1="880.18" y1="154.00" x2="880.18" y2="172.00" stroke="#10b981" stroke-width="1.4" opacity="0.9"/>
<line x1="892.43" y1="154.00" x2="892.43" y2="172.00" stroke="#10b981" stroke-width="1.4" opacity="0.9"/>
<line x1="900.60" y1="154.00" x2="900.60" y2="172.00" stroke="#10b981" stroke-width="1.4" opacity="0.9"/>
<line x1="921.01" y1="154.00" x2="921.01" y2="172.00" stroke="#10b981" stroke-width="1.4" opacity="0.9"/>
<line x1="929.17" y1="154.00" x2="929.17" y2="172.00" stroke="#10b981" stroke-width="1.4" opacity="0.9"/>
<line x1="941.42" y1="154.00" x2="941.42" y2="172.00" stroke="#10b981" stroke-width="1.4" opacity="0.9"/>
<line x1="953.67" y1="154.00" x2="953.67" y2="172.00" stroke="#10b981" stroke-width="1.4" opacity="0.9"/>
<line x1="965.92" y1="154.00" x2="965.92" y2="172.00" stroke="#10b981" stroke-width="1.4" opacity="0.9"/>
<text x="86" y="168" font-size="12" fill="#111827" font-family="ui-sans-serif, system-ui, -apple-system">RX (green=new label)</text>
<line x1="202.48" y1="210.00" x2="847.52" y2="210.00" stroke="#111827" stroke-width="2" marker-end="url(#arr)"/>
<text x="525.00" y="202.00" font-size="12" text-anchor="middle" fill="#111827" font-family="ui-sans-serif, system-ui, -apple-system">TL</text>
<text x="80" y="288" font-size="13" fill="#111827" font-family="ui-sans-serif, system-ui, -apple-system">Policy (U+CCS) (TL=0.00s)</text>
<rect x="80.00" y="298.00" width="126.56" height="26" fill="#3b82f6" opacity="0.22"/>
<rect x="210.64" y="298.00" width="306.19" height="26" fill="#ef4444" opacity="0.22"/>
<rect x="520.92" y="298.00" width="322.52" height="26" fill="#3b82f6" opacity="0.22"/>
<rect x="847.52" y="298.00" width="122.48" height="26" fill="#ef4444" opacity="0.22"/>
<text x="86" y="316" font-size="12" fill="#111827" font-family="ui-sans-serif, system-ui, -apple-system">interval</text>
<line x1="80.00" y1="354.00" x2="80.00" y2="372.00" stroke="#111827" stroke-width="1.4" opacity="0.9"/>
<line x1="120.83" y1="354.00" x2="120.83" y2="372.00" stroke="#111827" stroke-width="1.4" opacity="0.9"/>
<line x1="141.24" y1="354.00" x2="141.24" y2="372.00" stroke="#111827" stroke-width="1.4" opacity="0.9"/>
<line x1="202.48" y1="354.00" x2="202.48" y2="372.00" stroke="#10b981" stroke-width="1.4" opacity="0.9"/>
<line x1="210.64" y1="354.00" x2="210.64" y2="372.00" stroke="#10b981" stroke-width="1.4" opacity="0.9"/>
<line x1="218.81" y1="354.00" x2="218.81" y2="372.00" stroke="#111827" stroke-width="1.4" opacity="0.9"/>
<line x1="235.14" y1="354.00" x2="235.14" y2="372.00" stroke="#111827" stroke-width="1.4" opacity="0.9"/>
<line x1="243.30" y1="354.00" x2="243.30" y2="372.00" stroke="#111827" stroke-width="1.4" opacity="0.9"/>
<line x1="251.47" y1="354.00" x2="251.47" y2="372.00" stroke="#111827" stroke-width="1.4" opacity="0.9"/>
<line x1="275.96" y1="354.00" x2="275.96" y2="372.00" stroke="#111827" stroke-width="1.4" opacity="0.9"/>
<line x1="288.21" y1="354.00" x2="288.21" y2="372.00" stroke="#111827" stroke-width="1.4" opacity="0.9"/>
<line x1="304.54" y1="354.00" x2="304.54" y2="372.00" stroke="#111827" stroke-width="1.4" opacity="0.9"/>
<line x1="320.87" y1="354.00" x2="320.87" y2="372.00" stroke="#111827" stroke-width="1.4" opacity="0.9"/>
<line x1="329.04" y1="354.00" x2="329.04" y2="372.00" stroke="#111827" stroke-width="1.4" opacity="0.9"/>
<line x1="341.28" y1="354.00" x2="341.28" y2="372.00" stroke="#111827" stroke-width="1.4" opacity="0.9"/>
<line x1="353.53" y1="354.00" x2="353.53" y2="372.00" stroke="#111827" stroke-width="1.4" opacity="0.9"/>
<line x1="369.86" y1="354.00" x2="369.86" y2="372.00" stroke="#111827" stroke-width="1.4" opacity="0.9"/>
<line x1="382.11" y1="354.00" x2="382.11" y2="372.00" stroke="#111827" stroke-width="1.4" opacity="0.9"/>
<line x1="394.36" y1="354.00" x2="394.36" y2="372.00" stroke="#111827" stroke-width="1.4" opacity="0.9"/>
<line x1="410.69" y1="354.00" x2="410.69" y2="372.00" stroke="#111827" stroke-width="1.4" opacity="0.9"/>
<line x1="418.85" y1="354.00" x2="418.85" y2="372.00" stroke="#111827" stroke-width="1.4" opacity="0.9"/>
<line x1="427.02" y1="354.00" x2="427.02" y2="372.00" stroke="#111827" stroke-width="1.4" opacity="0.9"/>
<line x1="439.27" y1="354.00" x2="439.27" y2="372.00" stroke="#111827" stroke-width="1.4" opacity="0.9"/>
<line x1="451.51" y1="354.00" x2="451.51" y2="372.00" stroke="#111827" stroke-width="1.4" opacity="0.9"/>
<line x1="467.84" y1="354.00" x2="467.84" y2="372.00" stroke="#111827" stroke-width="1.4" opacity="0.9"/>
<line x1="480.09" y1="354.00" x2="480.09" y2="372.00" stroke="#111827" stroke-width="1.4" opacity="0.9"/>
<line x1="492.34" y1="354.00" x2="492.34" y2="372.00" stroke="#111827" stroke-width="1.4" opacity="0.9"/>
<line x1="504.59" y1="354.00" x2="504.59" y2="372.00" stroke="#111827" stroke-width="1.4" opacity="0.9"/>
<line x1="512.75" y1="354.00" x2="512.75" y2="372.00" stroke="#111827" stroke-width="1.4" opacity="0.9"/>
<line x1="520.92" y1="354.00" x2="520.92" y2="372.00" stroke="#111827" stroke-width="1.4" opacity="0.9"/>
<line x1="561.74" y1="354.00" x2="561.74" y2="372.00" stroke="#111827" stroke-width="1.4" opacity="0.9"/>
<line x1="582.16" y1="354.00" x2="582.16" y2="372.00" stroke="#111827" stroke-width="1.4" opacity="0.9"/>
<line x1="602.57" y1="354.00" x2="602.57" y2="372.00" stroke="#111827" stroke-width="1.4" opacity="0.9"/>
<line x1="622.98" y1="354.00" x2="622.98" y2="372.00" stroke="#111827" stroke-width="1.4" opacity="0.9"/>
<line x1="643.39" y1="354.00" x2="643.39" y2="372.00" stroke="#111827" stroke-width="1.4" opacity="0.9"/>
<line x1="704.63" y1="354.00" x2="704.63" y2="372.00" stroke="#111827" stroke-width="1.4" opacity="0.9"/>
<line x1="725.05" y1="354.00" x2="725.05" y2="372.00" stroke="#111827" stroke-width="1.4" opacity="0.9"/>
<line x1="745.46" y1="354.00" x2="745.46" y2="372.00" stroke="#111827" stroke-width="1.4" opacity="0.9"/>
<line x1="765.87" y1="354.00" x2="765.87" y2="372.00" stroke="#111827" stroke-width="1.4" opacity="0.9"/>
<line x1="786.28" y1="354.00" x2="786.28" y2="372.00" stroke="#111827" stroke-width="1.4" opacity="0.9"/>
<line x1="847.52" y1="354.00" x2="847.52" y2="372.00" stroke="#10b981" stroke-width="1.4" opacity="0.9"/>
<line x1="855.69" y1="354.00" x2="855.69" y2="372.00" stroke="#10b981" stroke-width="1.4" opacity="0.9"/>
<line x1="863.85" y1="354.00" x2="863.85" y2="372.00" stroke="#10b981" stroke-width="1.4" opacity="0.9"/>
<line x1="872.02" y1="354.00" x2="872.02" y2="372.00" stroke="#10b981" stroke-width="1.4" opacity="0.9"/>
<line x1="888.35" y1="354.00" x2="888.35" y2="372.00" stroke="#10b981" stroke-width="1.4" opacity="0.9"/>
<line x1="896.51" y1="354.00" x2="896.51" y2="372.00" stroke="#10b981" stroke-width="1.4" opacity="0.9"/>
<line x1="908.76" y1="354.00" x2="908.76" y2="372.00" stroke="#10b981" stroke-width="1.4" opacity="0.9"/>
<line x1="925.09" y1="354.00" x2="925.09" y2="372.00" stroke="#10b981" stroke-width="1.4" opacity="0.9"/>
<line x1="937.34" y1="354.00" x2="937.34" y2="372.00" stroke="#10b981" stroke-width="1.4" opacity="0.9"/>
<line x1="945.50" y1="354.00" x2="945.50" y2="372.00" stroke="#10b981" stroke-width="1.4" opacity="0.9"/>
<line x1="961.83" y1="354.00" x2="961.83" y2="372.00" stroke="#10b981" stroke-width="1.4" opacity="0.9"/>
<text x="86" y="368" font-size="12" fill="#111827" font-family="ui-sans-serif, system-ui, -apple-system">RX (green=new label)</text>
<line x1="202.48" y1="410.00" x2="202.48" y2="410.00" stroke="#111827" stroke-width="2" marker-end="url(#arr)"/>
<text x="202.48" y="402.00" font-size="12" text-anchor="middle" fill="#111827" font-family="ui-sans-serif, system-ui, -apple-system">TL</text>
<rect x="710" y="80" width="240" height="66" fill="#ffffff" stroke="#e5e7eb" stroke-width="1"/>
<line x1="724" y1="102" x2="724" y2="120" stroke="#10b981" stroke-width="2"/>
<text x="736" y="116" font-size="12" fill="#111827" font-family="ui-sans-serif, system-ui, -apple-system">RX new-label packet</text>
<line x1="724" y1="126" x2="724" y2="144" stroke="#111827" stroke-width="2"/>
<text x="736" y="140" font-size="12" fill="#111827" font-family="ui-sans-serif, system-ui, -apple-system">RX other packet</text>
</svg>
