<svg xmlns="http://www.w3.org/2000/svg" width="920" height="560" viewBox="0 0 920 560">
<rect x="0" y="0" width="920" height="560" fill="#ffffff"/>
<text x="460.0" y="34" font-size="20" text-anchor="middle" fill="#111827" font-family="ui-sans-serif, system-ui, -apple-system">D4B timing (S4, scan90): P(100ms) around truth transitions (±2.0s)</text>
<rect x="80" y="60" width="810" height="430" fill="none" stroke="#111827" stroke-width="1.2"/>
<line x1="80.00" y1="60" x2="80.00" y2="490" stroke="#e5e7eb" stroke-width="1"/>
<text x="80.00" y="514" font-size="12" text-anchor="middle" fill="#111827" font-family="ui-sans-serif, system-ui, -apple-system">-2.0</text>
<line x1="242.00" y1="60" x2="242.00" y2="490" stroke="#e5e7eb" stroke-width="1"/>
<text x="242.00" y="514" font-size="12" text-anchor="middle" fill="#111827" font-family="ui-sans-serif, system-ui, -apple-system">-1.2</text>
<line x1="404.00" y1="60" x2="404.00" y2="490" stroke="#e5e7eb" stroke-width="1"/>
<text x="404.00" y="514" font-size="12" text-anchor="middle" fill="#111827" font-family="ui-sans-serif, system-ui, -apple-system">-0.4</text>
<line x1="566.00" y1="60" x2="566.00" y2="490" stroke="#e5e7eb" stroke-width="1"/>
<text x="566.00" y="514" font-size="12" text-anchor="middle" fill="#111827" font-family="ui-sans-serif, system-ui, -apple-system">0.4</text>
<line x1="728.00" y1="60" x2="728.00" y2="490" stroke="#e5e7eb" stroke-width="1"/>
<text x="728.00" y="514" font-size="12" text-anchor="middle" fill="#111827" font-family="ui-sans-serif, system-ui, -apple-system">1.2</text>
<line x1="890.00" y1="60" x2="890.00" y2="490" stroke="#e5e7eb" stroke-width="1"/>
<text x="890.00" y="514" font-size="12" text-anchor="middle" fill="#111827" font-family="ui-sans-serif, system-ui, -apple-system">2.0</text>
<line x1="80" y1="490.00" x2="890" y2="490.00" stroke="#e5e7eb" stroke-width="1"/>
<text x="70" y="494.00" font-size="12" text-anchor="end" fill="#111827" font-family="ui-sans-serif, system-ui, -apple-system">0.00</text>
<line x1="80" y1="404.00" x2="890" y2="404.00" stroke="#e5e7eb" stroke-width="1"/>
<text x="70" y="408.00" font-size="12" text-anchor="end" fill="#111827" font-family="ui-sans-serif, system-ui, -apple-system">0.20</text>
<line x1="80" y1="318.00" x2="890" y2="318.00" stroke="#e5e7eb" stroke-width="1"/>
<text x="70" y="322.00" font-size="12" text-anchor="end" fill="#111827" font-family="ui-sans-serif, system-ui, -apple-system">0.40</text>
<line x1="80" y1="232.00" x2="890" y2="232.00" stroke="#e5e7eb" stroke-width="1"/>
<text x="70" y="236.00" font-size="12" text-anchor="end" fill="#111827" font-family="ui-sans-serif, system-ui, -apple-system">0.60</text>
<line x1="80" y1="146.00" x2="890" y2="146.00" stroke="#e5e7eb" stroke-width="1"/>
<text x="70" y="150.00" font-size="12" text-anchor="end" fill="#111827" font-family="ui-sans-serif, system-ui, -apple-system">0.80</text>
<line x1="80" y1="60.00" x2="890" y2="60.00" stroke="#e5e7eb" stroke-width="1"/>
<text x="70" y="64.00" font-size="12" text-anchor="end" fill="#111827" font-family="ui-sans-serif, system-ui, -apple-system">1.00</text>
<text x="485.0" y="536" font-size="14" text-anchor="middle" fill="#111827" font-family="ui-sans-serif, system-ui, -apple-system">relative time from transition [s]</text>
<text x="22" y="275.0" font-size="14" text-anchor="middle" fill="#111827" font-family="ui-sans-serif, system-ui, -apple-system" transform="rotate(-90 22 275.0)">P(interval=100ms)</text>
<polyline fill="none" stroke="#10b981" stroke-width="3" points="80.00,267.83 100.25,275.00 120.50,282.17 140.75,271.42 161.00,267.83 181.25,271.42 201.50,260.67 221.75,255.77 242.00,259.27 262.25,259.27 282.50,259.27 302.75,255.77 323.00,252.28 343.25,269.76 363.50,259.27 383.75,269.76 404.00,269.76 424.25,269.76 444.50,262.76 464.75,262.76 485.00,262.76 505.25,262.76 525.50,245.28 545.75,241.79 566.00,227.80 586.25,199.84 606.50,150.89 626.75,129.92 647.00,108.94 667.25,94.96 687.50,91.46 707.75,91.46 728.00,91.46 748.25,80.98 768.50,60.00 788.75,60.00 809.00,60.00 829.25,60.00 849.50,60.00 869.75,60.00 890.00,60.00"/>
<circle cx="485.00" cy="262.76" r="4.5" fill="#10b981"/>
<polyline fill="none" stroke="#f59e0b" stroke-width="3" points="80.00,275.00 100.25,278.58 120.50,285.75 140.75,282.17 161.00,267.83 181.25,267.83 201.50,264.25 221.75,262.76 242.00,269.76 262.25,269.76 282.50,269.76 302.75,259.27 323.00,259.27 343.25,269.76 363.50,259.27 383.75,262.76 404.00,262.76 424.25,259.27 444.50,255.77 464.75,255.77 485.00,262.76 505.25,262.76 525.50,245.28 545.75,238.29 566.00,227.80 586.25,213.82 606.50,171.87 626.75,147.40 647.00,115.93 667.25,101.95 687.50,101.95 707.75,101.95 728.00,101.95 748.25,91.46 768.50,60.00 788.75,60.00 809.00,60.00 829.25,60.00 849.50,60.00 869.75,60.00 890.00,60.00"/>
<circle cx="485.00" cy="262.76" r="4.5" fill="#f59e0b"/>
<rect x="84" y="64" width="260" height="64" fill="#ffffff" stroke="#e5e7eb" stroke-width="1"/>
<line x1="90" y1="88" x2="118" y2="88" stroke="#10b981" stroke-width="4"/>
<text x="126" y="93" font-size="12" fill="#111827" font-family="ui-sans-serif, system-ui, -apple-system">policy (U+CCS)</text>
<line x1="90" y1="114" x2="118" y2="114" stroke="#f59e0b" stroke-width="4"/>
<text x="126" y="119" font-size="12" fill="#111827" font-family="ui-sans-serif, system-ui, -apple-system">u-only (CCS-off)</text>
</svg>
