<svg xmlns="http://www.w3.org/2000/svg" width="1000" height="560" viewBox="0 0 1000 560">
<defs><marker id="arr" viewBox="0 0 10 10" refX="9" refY="5" markerWidth="7" markerHeight="7" orient="auto-start-reverse"><path d="M 0 0 L 10 5 L 0 10 z" fill="#111827"/></marker></defs>
<rect x="0" y="0" width="1000" height="560" fill="#ffffff"/>
<text x="500.0" y="38" font-size="20" text-anchor="middle" fill="#111827" font-family="ui-sans-serif, system-ui, -apple-system">D4B outage story (S4, scan70; selected trials) (TL&gt;1.0s)</text>
<rect x="80" y="70" width="890" height="400" fill="none" stroke="#111827" stroke-width="1.2"/>
<line x1="80.00" y1="70" x2="80.00" y2="470" stroke="#e5e7eb" stroke-width="1"/>
<text x="80.00" y="498" font-size="12" text-anchor="middle" fill="#111827" font-family="ui-sans-serif, system-ui, -apple-system">-1.3</text>
<line x1="238.22" y1="70" x2="238.22" y2="470" stroke="#e5e7eb" stroke-width="1"/>
<text x="238.22" y="498" font-size="12" text-anchor="middle" fill="#111827" font-family="ui-sans-serif, system-ui, -apple-system">-0.5</text>
<line x1="376.67" y1="70" x2="376.67" y2="470" stroke="#e5e7eb" stroke-width="1"/>
<text x="376.67" y="498" font-size="12" text-anchor="middle" fill="#111827" font-family="ui-sans-serif, system-ui, -apple-system">0.2</text>
<line x1="515.11" y1="70" x2="515.11" y2="470" stroke="#e5e7eb" stroke-width="1"/>
<text x="515.11" y="498" font-size="12" text-anchor="middle" fill="#111827" font-family="ui-sans-serif, system-ui, -apple-system">0.9</text>
<line x1="673.33" y1="70" x2="673.33" y2="470" stroke="#e5e7eb" stroke-width="1"/>
<text x="673.33" y="498" font-size="12" text-anchor="middle" fill="#111827" font-family="ui-sans-serif, system-ui, -apple-system">1.7</text>
<line x1="831.56" y1="70" x2="831.56" y2="470" stroke="#e5e7eb" stroke-width="1"/>
<text x="831.56" y="498" font-size="12" text-anchor="middle" fill="#111827" font-family="ui-sans-serif, system-ui, -apple-system">2.5</text>
<line x1="970.00" y1="70" x2="970.00" y2="470" stroke="#e5e7eb" stroke-width="1"/>
<text x="970.00" y="498" font-size="12" text-anchor="middle" fill="#111827" font-family="ui-sans-serif, system-ui, -apple-system">3.2</text>
<text x="525.0" y="538" font-size="14" text-anchor="middle" fill="#111827" font-family="ui-sans-serif, system-ui, -apple-system">time relative to selected transition [s]</text>
<line x1="337.11" y1="70" x2="337.11" y2="470" stroke="#6b7280" stroke-width="2" stroke-dasharray="6 4"/>
<text x="343.11" y="60" font-size="12" fill="#6b7280" font-family="ui-sans-serif, system-ui, -apple-system">truth transition (label=0)</text>
<text x="80" y="88" font-size="13" fill="#111827" font-family="ui-sans-serif, system-ui, -apple-system">U-only (CCS-off) (TL=0.25s)</text>
<rect x="80.00" y="98.00" width="890.00" height="26" fill="#ef4444" opacity="0.22"/>
<text x="86" y="116" font-size="12" fill="#111827" font-family="ui-sans-serif, system-ui, -apple-system">interval</text>
<line x1="119.56" y1="154.00" x2="119.56" y2="172.00" stroke="#111827" stroke-width="1.4" opacity="0.9"/>
<line x1="159.11" y1="154.00" x2="159.11" y2="172.00" stroke="#111827" stroke-width="1.4" opacity="0.9"/>
<line x1="218.44" y1="154.00" x2="218.44" y2="172.00" stroke="#111827" stroke-width="1.4" opacity="0.9"/>
<line x1="258.00" y1="154.00" x2="258.00" y2="172.00" stroke="#111827" stroke-width="1.4" opacity="0.9"/>
<line x1="297.56" y1="154.00" x2="297.56" y2="172.00" stroke="#111827" stroke-width="1.4" opacity="0.9"/>
<line x1="317.33" y1="154.00" x2="317.33" y2="172.00" stroke="#111827" stroke-width="1.4" opacity="0.9"/>
<line x1="376.67" y1="154.00" x2="376.67" y2="172.00" stroke="#10b981" stroke-width="1.4" opacity="0.9"/>
<line x1="436.00" y1="154.00" x2="436.00" y2="172.00" stroke="#10b981" stroke-width="1.4" opacity="0.9"/>
<line x1="475.56" y1="154.00" x2="475.56" y2="172.00" stroke="#10b981" stroke-width="1.4" opacity="0.9"/>
<line x1="515.11" y1="154.00" x2="515.11" y2="172.00" stroke="#10b981" stroke-width="1.4" opacity="0.9"/>
<line x1="594.22" y1="154.00" x2="594.22" y2="172.00" stroke="#10b981" stroke-width="1.4" opacity="0.9"/>
<line x1="653.56" y1="154.00" x2="653.56" y2="172.00" stroke="#10b981" stroke-width="1.4" opacity="0.9"/>
<line x1="693.11" y1="154.00" x2="693.11" y2="172.00" stroke="#10b981" stroke-width="1.4" opacity="0.9"/>
<line x1="772.22" y1="154.00" x2="772.22" y2="172.00" stroke="#10b981" stroke-width="1.4" opacity="0.9"/>
<line x1="831.56" y1="154.00" x2="831.56" y2="172.00" stroke="#10b981" stroke-width="1.4" opacity="0.9"/>
<line x1="890.89" y1="154.00" x2="890.89" y2="172.00" stroke="#10b981" stroke-width="1.4" opacity="0.9"/>
<line x1="950.22" y1="154.00" x2="950.22" y2="172.00" stroke="#10b981" stroke-width="1.4" opacity="0.9"/>
<text x="86" y="168" font-size="12" fill="#111827" font-family="ui-sans-serif, system-ui, -apple-system">RX (green=new label)</text>
<line x1="337.11" y1="210.00" x2="376.67" y2="210.00" stroke="#111827" stroke-width="2" marker-end="url(#arr)"/>
<text x="356.89" y="202.00" font-size="12" text-anchor="middle" fill="#111827" font-family="ui-sans-serif, system-ui, -apple-system">TL</text>
<text x="80" y="288" font-size="13" fill="#111827" font-family="ui-sans-serif, system-ui, -apple-system">Policy (U+CCS) (TL=0.02s)</text>
<rect x="80.00" y="298.00" width="890.00" height="26" fill="#ef4444" opacity="0.22"/>
<text x="86" y="316" font-size="12" fill="#111827" font-family="ui-sans-serif, system-ui, -apple-system">interval</text>
<line x1="119.56" y1="354.00" x2="119.56" y2="372.00" stroke="#111827" stroke-width="1.4" opacity="0.9"/>
<line x1="159.11" y1="354.00" x2="159.11" y2="372.00" stroke="#111827" stroke-width="1.4" opacity="0.9"/>
<line x1="218.44" y1="354.00" x2="218.44" y2="372.00" stroke="#111827" stroke-width="1.4" opacity="0.9"/>
<line x1="277.78" y1="354.00" x2="277.78" y2="372.00" stroke="#111827" stroke-width="1.4" opacity="0.9"/>
<line x1="337.11" y1="354.00" x2="337.11" y2="372.00" stroke="#10b981" stroke-width="1.4" opacity="0.9"/>
<line x1="396.44" y1="354.00" x2="396.44" y2="372.00" stroke="#10b981" stroke-width="1.4" opacity="0.9"/>
<line x1="475.56" y1="354.00" x2="475.56" y2="372.00" stroke="#10b981" stroke-width="1.4" opacity="0.9"/>
<line x1="515.11" y1="354.00" x2="515.11" y2="372.00" stroke="#10b981" stroke-width="1.4" opacity="0.9"/>
<line x1="574.44" y1="354.00" x2="574.44" y2="372.00" stroke="#10b981" stroke-width="1.4" opacity="0.9"/>
<line x1="633.78" y1="354.00" x2="633.78" y2="372.00" stroke="#10b981" stroke-width="1.4" opacity="0.9"/>
<line x1="693.11" y1="354.00" x2="693.11" y2="372.00" stroke="#10b981" stroke-width="1.4" opacity="0.9"/>
<line x1="752.44" y1="354.00" x2="752.44" y2="372.00" stroke="#10b981" stroke-width="1.4" opacity="0.9"/>
<line x1="811.78" y1="354.00" x2="811.78" y2="372.00" stroke="#10b981" stroke-width="1.4" opacity="0.9"/>
<line x1="890.89" y1="354.00" x2="890.89" y2="372.00" stroke="#10b981" stroke-width="1.4" opacity="0.9"/>
<line x1="950.22" y1="354.00" x2="950.22" y2="372.00" stroke="#10b981" stroke-width="1.4" opacity="0.9"/>
<text x="86" y="368" font-size="12" fill="#111827" font-family="ui-sans-serif, system-ui, -apple-system">RX (green=new label)</text>
<line x1="337.11" y1="410.00" x2="337.11" y2="410.00" stroke="#111827" stroke-width="2" marker-end="url(#arr)"/>
<text x="337.11" y="402.00" font-size="12" text-anchor="middle" fill="#111827" font-family="ui-sans-serif, system-ui, -apple-system">TL</text>
<rect x="710" y="80" width="240" height="66" fill="#ffffff" stroke="#e5e7eb" stroke-width="1"/>
<line x1="724" y1="102" x2="724" y2="120" stroke="#10b981" stroke-width="2"/>
<text x="736" y="116" font-size="12" fill="#111827" font-family="ui-sans-serif, system-ui, -apple-system">RX new-label packet</text>
<line x1="724" y1="126" x2="724" y2="144" stroke="#111827" stroke-width="2"/>
<text x="736" y="140" font-size="12" fill="#111827" font-family="ui-sans-serif, system-ui, -apple-system">RX other packet</text>
</svg>
