<svg xmlns="http://www.w3.org/2000/svg" width="980" height="640" viewBox="0 0 980 640">
<defs><marker id="arrow" viewBox="0 0 10 10" refX="9" refY="5" markerWidth="7" markerHeight="7" orient="auto-start-reverse"><path d="M 0 0 L 10 5 L 0 10 z" fill="#111827"/></marker></defs>
<rect x="0" y="0" width="980" height="640" fill="#ffffff"/>
<text x="490.0" y="38" font-size="20" text-anchor="middle" fill="#111827" font-family="ui-sans-serif, system-ui, -apple-system">Role separation overview (scan90/scan70, S4)</text>
<rect x="80" y="60" width="880" height="515" fill="none" stroke="#111827" stroke-width="1.2"/>
<line x1="80.00" y1="60" x2="80.00" y2="575" stroke="#e5e7eb" stroke-width="1"/>
<text x="80.00" y="601" font-size="12" text-anchor="middle" fill="#111827" font-family="ui-sans-serif, system-ui, -apple-system">185</text>
<line x1="256.00" y1="60" x2="256.00" y2="575" stroke="#e5e7eb" stroke-width="1"/>
<text x="256.00" y="601" font-size="12" text-anchor="middle" fill="#111827" font-family="ui-sans-serif, system-ui, -apple-system">190</text>
<line x1="432.00" y1="60" x2="432.00" y2="575" stroke="#e5e7eb" stroke-width="1"/>
<text x="432.00" y="601" font-size="12" text-anchor="middle" fill="#111827" font-family="ui-sans-serif, system-ui, -apple-system">195</text>
<line x1="608.00" y1="60" x2="608.00" y2="575" stroke="#e5e7eb" stroke-width="1"/>
<text x="608.00" y="601" font-size="12" text-anchor="middle" fill="#111827" font-family="ui-sans-serif, system-ui, -apple-system">200</text>
<line x1="784.00" y1="60" x2="784.00" y2="575" stroke="#e5e7eb" stroke-width="1"/>
<text x="784.00" y="601" font-size="12" text-anchor="middle" fill="#111827" font-family="ui-sans-serif, system-ui, -apple-system">205</text>
<line x1="960.00" y1="60" x2="960.00" y2="575" stroke="#e5e7eb" stroke-width="1"/>
<text x="960.00" y="601" font-size="12" text-anchor="middle" fill="#111827" font-family="ui-sans-serif, system-ui, -apple-system">210</text>
<line x1="80" y1="575.00" x2="960" y2="575.00" stroke="#e5e7eb" stroke-width="1"/>
<text x="70" y="579.00" font-size="12" text-anchor="end" fill="#111827" font-family="ui-sans-serif, system-ui, -apple-system">0</text>
<line x1="80" y1="501.43" x2="960" y2="501.43" stroke="#e5e7eb" stroke-width="1"/>
<text x="70" y="505.43" font-size="12" text-anchor="end" fill="#111827" font-family="ui-sans-serif, system-ui, -apple-system">0.05</text>
<line x1="80" y1="427.86" x2="960" y2="427.86" stroke="#e5e7eb" stroke-width="1"/>
<text x="70" y="431.86" font-size="12" text-anchor="end" fill="#111827" font-family="ui-sans-serif, system-ui, -apple-system">0.1</text>
<line x1="80" y1="354.29" x2="960" y2="354.29" stroke="#e5e7eb" stroke-width="1"/>
<text x="70" y="358.29" font-size="12" text-anchor="end" fill="#111827" font-family="ui-sans-serif, system-ui, -apple-system">0.15</text>
<line x1="80" y1="280.71" x2="960" y2="280.71" stroke="#e5e7eb" stroke-width="1"/>
<text x="70" y="284.71" font-size="12" text-anchor="end" fill="#111827" font-family="ui-sans-serif, system-ui, -apple-system">0.2</text>
<line x1="80" y1="207.14" x2="960" y2="207.14" stroke="#e5e7eb" stroke-width="1"/>
<text x="70" y="211.14" font-size="12" text-anchor="end" fill="#111827" font-family="ui-sans-serif, system-ui, -apple-system">0.25</text>
<line x1="80" y1="133.57" x2="960" y2="133.57" stroke="#e5e7eb" stroke-width="1"/>
<text x="70" y="137.57" font-size="12" text-anchor="end" fill="#111827" font-family="ui-sans-serif, system-ui, -apple-system">0.3</text>
<line x1="80" y1="60.00" x2="960" y2="60.00" stroke="#e5e7eb" stroke-width="1"/>
<text x="70" y="64.00" font-size="12" text-anchor="end" fill="#111827" font-family="ui-sans-serif, system-ui, -apple-system">0.35</text>
<text x="520.0" y="614" font-size="14" text-anchor="middle" fill="#111827" font-family="ui-sans-serif, system-ui, -apple-system">avg_power_mW (lower=better)</text>
<text x="22" y="317.5" font-size="14" text-anchor="middle" fill="#111827" font-family="ui-sans-serif, system-ui, -apple-system" transform="rotate(-90 22 317.5)">pout_1s (lower=better)</text>
<line x1="80" y1="427.86" x2="960" y2="427.86" stroke="#9ca3af" stroke-width="2" stroke-dasharray="6 4"/>
<text x="950" y="419.86" font-size="12" text-anchor="end" fill="#6b7280" font-family="ui-sans-serif, system-ui, -apple-system">ε=0.1</text>
<line x1="893.40" y1="503.22" x2="630.04" y2="503.22" stroke="#111827" stroke-width="2" marker-end="url(#arrow)" opacity="0.85"/>
<line x1="630.84" y1="479.30" x2="630.04" y2="503.22" stroke="#111827" stroke-width="2" marker-end="url(#arrow)" opacity="0.85"/>
<line x1="190.84" y1="383.60" x2="239.81" y2="156.30" stroke="#111827" stroke-width="2" marker-end="url(#arrow)" opacity="0.85"/>
<line x1="630.04" y1="503.22" x2="682.52" y2="443.41" stroke="#111827" stroke-width="2" marker-end="url(#arrow)" opacity="0.85"/>
<line x1="899.39" y1="476.09" x2="899.39" y2="434.65" stroke="#3b82f6" stroke-width="2" opacity="0.9"/>
<rect x="893.39" y="449.37" width="12" height="12" fill="#3b82f6" opacity="0.95"/>
<text x="887.39" y="445.37" font-size="12" text-anchor="end" fill="#111827" style="paint-order: stroke; stroke: #ffffff; stroke-width: 4px; stroke-linejoin: round;" font-family="ui-sans-serif, system-ui, -apple-system">fixed100 (90)</text>
<line x1="190.84" y1="425.03" x2="190.84" y2="342.16" stroke="#3b82f6" stroke-width="2" opacity="0.9"/>
<rect x="184.84" y="377.60" width="12" height="12" fill="#3b82f6" opacity="0.95"/>
<text x="200.84" y="373.60" font-size="12" text-anchor="start" fill="#111827" style="paint-order: stroke; stroke: #ffffff; stroke-width: 4px; stroke-linejoin: round;" font-family="ui-sans-serif, system-ui, -apple-system">fixed500 (90)</text>
<line x1="630.04" y1="503.22" x2="630.04" y2="503.22" stroke="#10b981" stroke-width="2" opacity="0.9"/>
<circle cx="630.04" cy="503.22" r="6" fill="#10b981" opacity="0.95"/>
<text x="642.04" y="525.22" font-size="12" text-anchor="start" fill="#111827" style="paint-order: stroke; stroke: #ffffff; stroke-width: 4px; stroke-linejoin: round;" font-family="ui-sans-serif, system-ui, -apple-system">policy (90)</text>
<line x1="893.40" y1="503.22" x2="893.40" y2="503.22" stroke="#f59e0b" stroke-width="2" opacity="0.9"/>
<polygon points="893.40,496.22 886.90,509.22 899.90,509.22" fill="#f59e0b" opacity="0.95"/>
<text x="881.40" y="521.22" font-size="12" text-anchor="end" fill="#111827" style="paint-order: stroke; stroke: #ffffff; stroke-width: 4px; stroke-linejoin: round;" font-family="ui-sans-serif, system-ui, -apple-system">U-shuf</text>
<line x1="630.84" y1="500.02" x2="630.84" y2="458.58" stroke="#f59e0b" stroke-width="2" opacity="0.9"/>
<polygon points="630.84,472.30 624.34,485.30 637.34,485.30" fill="#f59e0b" opacity="0.95"/>
<text x="642.84" y="471.30" font-size="12" text-anchor="start" fill="#111827" style="paint-order: stroke; stroke: #ffffff; stroke-width: 4px; stroke-linejoin: round;" font-family="ui-sans-serif, system-ui, -apple-system">CCS-off</text>
<line x1="955.71" y1="520.74" x2="955.71" y2="437.86" stroke="#111827" stroke-width="2" opacity="0.9"/>
<polygon points="955.71,472.30 948.71,479.30 955.71,486.30 962.71,479.30" fill="#111827" opacity="0.95"/>
<text x="943.71" y="497.30" font-size="12" text-anchor="end" fill="#111827" style="paint-order: stroke; stroke: #ffffff; stroke-width: 4px; stroke-linejoin: round;" font-family="ui-sans-serif, system-ui, -apple-system">fixed100 (70)</text>
<line x1="239.81" y1="246.62" x2="239.81" y2="65.98" stroke="#111827" stroke-width="2" opacity="0.9"/>
<polygon points="239.81,149.30 232.81,156.30 239.81,163.30 246.81,156.30" fill="#111827" opacity="0.95"/>
<text x="249.81" y="146.30" font-size="12" text-anchor="start" fill="#111827" style="paint-order: stroke; stroke: #ffffff; stroke-width: 4px; stroke-linejoin: round;" font-family="ui-sans-serif, system-ui, -apple-system">fixed500 (70)</text>
<line x1="682.52" y1="498.23" x2="682.52" y2="388.59" stroke="#111827" stroke-width="2" opacity="0.9"/>
<polygon points="682.52,436.41 675.52,443.41 682.52,450.41 689.52,443.41" fill="#111827" opacity="0.95"/>
<text x="694.52" y="435.41" font-size="12" text-anchor="start" fill="#111827" style="paint-order: stroke; stroke: #ffffff; stroke-width: 4px; stroke-linejoin: round;" font-family="ui-sans-serif, system-ui, -apple-system">policy (70)</text>
<rect x="704" y="64" width="240" height="128" fill="#ffffff" stroke="#e5e7eb" stroke-width="1"/>
<rect x="716.00" y="82.00" width="12" height="12" fill="#3b82f6" opacity="0.95"/>
<text x="738" y="93" font-size="12" fill="#111827" font-family="ui-sans-serif, system-ui, -apple-system">scan90 fixed</text>
<circle cx="722.00" cy="116.00" r="6" fill="#10b981" opacity="0.95"/>
<text x="738" y="121" font-size="12" fill="#111827" font-family="ui-sans-serif, system-ui, -apple-system">scan90 policy</text>
<polygon points="722.00,137.00 715.50,150.00 728.50,150.00" fill="#f59e0b" opacity="0.95"/>
<text x="738" y="149" font-size="12" fill="#111827" font-family="ui-sans-serif, system-ui, -apple-system">scan90 ablation</text>
<polygon points="722.00,165.00 715.00,172.00 722.00,179.00 729.00,172.00" fill="#111827" opacity="0.95"/>
<text x="738" y="177" font-size="12" fill="#111827" font-family="ui-sans-serif, system-ui, -apple-system">scan70 (worse RX)</text>
</svg>
