<svg xmlns="http://www.w3.org/2000/svg" width="920" height="520" viewBox="0 0 920 520">
<rect x="0" y="0" width="920" height="520" fill="#ffffff"/>
<text x="460.0" y="38" font-size="20" text-anchor="middle" fill="#111827" font-family="ui-sans-serif, system-ui, -apple-system">D4B: outage-count distribution per trial (TL&gt;1.0s)</text>
<rect x="70" y="70" width="820" height="390" fill="none" stroke="#111827" stroke-width="1.2"/>
<line x1="70" y1="460.00" x2="890" y2="460.00" stroke="#e5e7eb" stroke-width="1"/>
<text x="62" y="464.00" font-size="12" text-anchor="end" fill="#111827" font-family="ui-sans-serif, system-ui, -apple-system">0</text>
<line x1="70" y1="382.00" x2="890" y2="382.00" stroke="#e5e7eb" stroke-width="1"/>
<text x="62" y="386.00" font-size="12" text-anchor="end" fill="#111827" font-family="ui-sans-serif, system-ui, -apple-system">1</text>
<line x1="70" y1="304.00" x2="890" y2="304.00" stroke="#e5e7eb" stroke-width="1"/>
<text x="62" y="308.00" font-size="12" text-anchor="end" fill="#111827" font-family="ui-sans-serif, system-ui, -apple-system">1</text>
<line x1="70" y1="226.00" x2="890" y2="226.00" stroke="#e5e7eb" stroke-width="1"/>
<text x="62" y="230.00" font-size="12" text-anchor="end" fill="#111827" font-family="ui-sans-serif, system-ui, -apple-system">2</text>
<line x1="70" y1="148.00" x2="890" y2="148.00" stroke="#e5e7eb" stroke-width="1"/>
<text x="62" y="152.00" font-size="12" text-anchor="end" fill="#111827" font-family="ui-sans-serif, system-ui, -apple-system">2</text>
<line x1="70" y1="70.00" x2="890" y2="70.00" stroke="#e5e7eb" stroke-width="1"/>
<text x="62" y="74.00" font-size="12" text-anchor="end" fill="#111827" font-family="ui-sans-serif, system-ui, -apple-system">3</text>
<rect x="98.75" y="460.00" width="71.75" height="0.00" fill="#2563eb" opacity="0.75"/>
<rect x="174.50" y="460.00" width="71.75" height="0.00" fill="#ef4444" opacity="0.75"/>
<text x="172.50" y="486" font-size="12" text-anchor="middle" fill="#111827" font-family="ui-sans-serif, system-ui, -apple-system">0</text>
<rect x="303.75" y="460.00" width="71.75" height="0.00" fill="#2563eb" opacity="0.75"/>
<rect x="379.50" y="460.00" width="71.75" height="0.00" fill="#ef4444" opacity="0.75"/>
<text x="377.50" y="486" font-size="12" text-anchor="middle" fill="#111827" font-family="ui-sans-serif, system-ui, -apple-system">1</text>
<rect x="508.75" y="70.00" width="71.75" height="390.00" fill="#2563eb" opacity="0.75"/>
<rect x="584.50" y="330.00" width="71.75" height="130.00" fill="#ef4444" opacity="0.75"/>
<text x="582.50" y="486" font-size="12" text-anchor="middle" fill="#111827" font-family="ui-sans-serif, system-ui, -apple-system">2</text>
<rect x="713.75" y="460.00" width="71.75" height="0.00" fill="#2563eb" opacity="0.75"/>
<rect x="789.50" y="200.00" width="71.75" height="260.00" fill="#ef4444" opacity="0.75"/>
<text x="787.50" y="486" font-size="12" text-anchor="middle" fill="#111827" font-family="ui-sans-serif, system-ui, -apple-system">3</text>
<rect x="670" y="80" width="210" height="54" fill="#ffffff" stroke="#e5e7eb" stroke-width="1"/>
<rect x="682" y="94" width="14" height="14" fill="#2563eb" opacity="0.75"/>
<text x="704" y="106" font-size="12" fill="#111827" font-family="ui-sans-serif, system-ui, -apple-system">Policy (U+CCS)</text>
<rect x="682" y="114" width="14" height="14" fill="#ef4444" opacity="0.75"/>
<text x="704" y="126" font-size="12" fill="#111827" font-family="ui-sans-serif, system-ui, -apple-system">U-only (CCS-off)</text>
<text x="480.0" y="500" font-size="14" text-anchor="middle" fill="#111827" font-family="ui-sans-serif, system-ui, -apple-system">outage count per trial (TL&gt;1s), binned</text>
<text x="18" y="265.0" font-size="14" text-anchor="middle" fill="#111827" font-family="ui-sans-serif, system-ui, -apple-system" transform="rotate(-90 18 265.0)"># trials</text>
</svg>