<svg xmlns="http://www.w3.org/2000/svg" width="920" height="520" viewBox="0 0 920 520">
<rect x="0" y="0" width="920" height="520" fill="#ffffff"/>
<text x="460.0" y="38" font-size="20" text-anchor="middle" fill="#111827" font-family="ui-sans-serif, system-ui, -apple-system">D4B: cumulative share of positive ΔPout explained by top-K transitions</text>
<rect x="70" y="70" width="820" height="390" fill="none" stroke="#111827" stroke-width="1.2"/>
<line x1="70" y1="460.00" x2="890" y2="460.00" stroke="#e5e7eb" stroke-width="1"/>
<text x="62" y="464.00" font-size="12" text-anchor="end" fill="#111827" font-family="ui-sans-serif, system-ui, -apple-system">0.00</text>
<line x1="70" y1="382.00" x2="890" y2="382.00" stroke="#e5e7eb" stroke-width="1"/>
<text x="62" y="386.00" font-size="12" text-anchor="end" fill="#111827" font-family="ui-sans-serif, system-ui, -apple-system">0.20</text>
<line x1="70" y1="304.00" x2="890" y2="304.00" stroke="#e5e7eb" stroke-width="1"/>
<text x="62" y="308.00" font-size="12" text-anchor="end" fill="#111827" font-family="ui-sans-serif, system-ui, -apple-system">0.40</text>
<line x1="70" y1="226.00" x2="890" y2="226.00" stroke="#e5e7eb" stroke-width="1"/>
<text x="62" y="230.00" font-size="12" text-anchor="end" fill="#111827" font-family="ui-sans-serif, system-ui, -apple-system">0.60</text>
<line x1="70" y1="148.00" x2="890" y2="148.00" stroke="#e5e7eb" stroke-width="1"/>
<text x="62" y="152.00" font-size="12" text-anchor="end" fill="#111827" font-family="ui-sans-serif, system-ui, -apple-system">0.80</text>
<line x1="70" y1="70.00" x2="890" y2="70.00" stroke="#e5e7eb" stroke-width="1"/>
<text x="62" y="74.00" font-size="12" text-anchor="end" fill="#111827" font-family="ui-sans-serif, system-ui, -apple-system">1.00</text>
<line x1="70.00" y1="70" x2="70.00" y2="460" stroke="#e5e7eb" stroke-width="1"/>
<text x="70.00" y="486" font-size="12" text-anchor="middle" fill="#111827" font-family="ui-sans-serif, system-ui, -apple-system">1</text>
<line x1="234.00" y1="70" x2="234.00" y2="460" stroke="#e5e7eb" stroke-width="1"/>
<text x="234.00" y="486" font-size="12" text-anchor="middle" fill="#111827" font-family="ui-sans-serif, system-ui, -apple-system">1</text>
<line x1="398.00" y1="70" x2="398.00" y2="460" stroke="#e5e7eb" stroke-width="1"/>
<text x="398.00" y="486" font-size="12" text-anchor="middle" fill="#111827" font-family="ui-sans-serif, system-ui, -apple-system">1</text>
<line x1="562.00" y1="70" x2="562.00" y2="460" stroke="#e5e7eb" stroke-width="1"/>
<text x="562.00" y="486" font-size="12" text-anchor="middle" fill="#111827" font-family="ui-sans-serif, system-ui, -apple-system">2</text>
<line x1="726.00" y1="70" x2="726.00" y2="460" stroke="#e5e7eb" stroke-width="1"/>
<text x="726.00" y="486" font-size="12" text-anchor="middle" fill="#111827" font-family="ui-sans-serif, system-ui, -apple-system">2</text>
<line x1="890.00" y1="70" x2="890.00" y2="460" stroke="#e5e7eb" stroke-width="1"/>
<text x="890.00" y="486" font-size="12" text-anchor="middle" fill="#111827" font-family="ui-sans-serif, system-ui, -apple-system">2</text>
<path d="M 70.00 265.00 L 890.00 70.00" fill="none" stroke="#2563eb" stroke-width="2.5"/>
<text x="480.0" y="500" font-size="14" text-anchor="middle" fill="#111827" font-family="ui-sans-serif, system-ui, -apple-system">top-K transitions (sorted by ΔPout contribution)</text>
<text x="18" y="265.0" font-size="14" text-anchor="middle" fill="#111827" font-family="ui-sans-serif, system-ui, -apple-system" transform="rotate(-90 18 265.0)">cumulative fraction of positive ΔPout</text>
</svg>